<?xml version="1.0" encoding="UTF-8"?>
<svg version="1.1" viewBox="0 0 1024 1024" width="1280" height="1280" xmlns="http://www.w3.org/2000/svg">
<path transform="translate(0)" d="m0 0h1024v1024h-1024z" fill="#FAFBFB"/>
<path transform="translate(290,440)" d="m0 0h39l5 5 11 14 9 12 11 14 14 18 13 17 2 3 14 1v8l-6 2 8 10 1-32v-71l46-1v84h54v9h-54v93l-1 1h-37l-8-9-9-12-11-14-13-16-12-16-22-28-9-12-2-1 7 11v3h-6v93l-3 1h-41v-94h-37v86l-4 4h-22l-3-3v-175l4-3h20l5 4v78l36-1v-82z" fill="#1A333B"/>
<path transform="translate(663,440)" d="m0 0 46 1v83h42v9h-42l1 31 3 10 8 7 4 1h14l8-4 4-6 2-8 1-124 46 1v83h37v-77l5-5h24l5 5 1 10v140l-1 21-5 5h-26l-3-4v-86h-37v35l-3 16-5 12-8 11-8 8-13 8-15 5-5 1h-24l-15-4-13-7-10-9-7-8-7-14-3-11-1-10z" fill="#1A333B"/>
<path transform="translate(268,216)" d="m0 0h11l8 4 1 3 11-4h8l5 2 7 6 2 5v3h9l6 3 3 3v2h2l3 7v8l-1 3 6 1 8 7v2h2l2 6v10l-4 8-4 2 1 2-1 9-3 5-5 4-3 2-10 1-4 5-6 3h-10v3h-2l-1 4-7 8-3 3-1 76-1 1h-51l-1-77-7-8-8-9-11-2-7-6v-2h-10l-4-2v-2l-4-1-4-5-1-10-4-2-5-8v-13l4-8 5-6 7-4h2l2-10 3-7 6-5 10-3 7-8 10-5h14l6 4 4-4h2v-2z" fill="#33804C"/>
<path transform="translate(500,666)" d="m0 0h37l5 24 15 64 3 12 1 59v82l-3 9-5 5-6 3h-53l-7-3-5-5-3-7v-140l4-22 14-67 2-12z" fill="#1A343B"/>
<path transform="translate(287,708)" d="m0 0h34l15 4 11 6 11 9 10 12 6 13 2 9v25l-5 14-6 10-13 13-8 6-8 4-9 3-18 2h-15l-20-4-16-8-10-8v-2l-3-1-9-12-6-15-2-17 2-16 5-12 7-10 4-5h2l1-3 11-7 15-7z" fill="#D14F1F"/>
<path transform="translate(515,440)" d="m0 0h110v48h-65l-1 27h52v9h49v9h-49v25h-52v69h-43l-1-1z" fill="#19323A"/>
<path transform="translate(732,646)" d="m0 0h35l2 1-1 9-6 18-8 14-9 12-10 10-10 7-15 8-14 5-18 3h-22l-14-2-16-5-16-8-11-8-8-7v-2l-3-1-10-14-8-16-4-13-1-8 1-2z" fill="#F1484C"/>
<path transform="translate(502,90)" d="m0 0h17l11 4 8 6 11 12 9 11 5 5 7 8 4 8 1 4v21l-4 11-5 9-1 4 16 15 10 8 14 13 5 5 8 7 2 5-4 5-5-2-9-9-11-9-18-18-8-7-7-6-4 2-10 8-11 5-7 2h-17l-11-4-10-8-11-15-9-11-12-16-4-8-2-8 1-13 5-12 8-11 1-3h-2l-6-7 2-5 4-1 8 7v2l13-8 9-4z" fill="#1A343B"/>
<path transform="translate(541,238)" d="m0 0h8l7 3 6 7 11 1 6 5 2 5v6l4 5v7l-2 3-5 1-2 10-16 44-5 15-1 6v40l6 12v10l-4 4-2 1h-42l-4-3-1-3v-9l6-12v-41l-6-20-16-45-2-5v-5l-5-1-1-7 4-5h3l-1-3v-8l2-4h2l1-3 10-2 5-4 2-1h10l7 4 6-6z" fill="#F27E1F"/>
<path transform="translate(452,268)" d="m0 0h2l-5 10-1 12 10 1 10 5 8 9 4 10 1 17 5 14 6 12 3 11v15l-5 14-7 10-8 7-12 6-10 2h-13l-13-4-11-7-9-10-7-14-1-4v-18l4-11 8-16 2-7 1-17 4-10 7-5v8l3-1 2-3 4-2 2-5 2 2-1-5h-2v2l-4-1 5-2v-2l6-1 2 1 2-15 3-6z" fill="#F27320"/>
<path transform="translate(823,635)" d="m0 0h12l10 4 8 7v2l3 1 7 12 2 4 3 1 5 6 7 6 10 13 3 9 1 6v8l-3 12-5 10h-2l-2 4-4 4-9 6-10 3h-10l-10-2-10 2-14-1-8-4v-2l-6-2-2-4h-2l-7-10-4-12v-16l4-11 6-10 7-9 1-3 1-15 4-10 8-7z" fill="#5AA85B"/>
<path transform="translate(400,777)" d="m0 0h11l1 1 1 14 4 9 5 5 16 10 8 6 7 7 6 10 3 9 1 6v8l-3 12-4 8-8 10-8 6-12 6-8 2h-28l-10-3-11-6-8-7-7-10-4-10-1-5v-12l3-13 7-11 4-5 11-8 16-10 3-3 4-11z" fill="#19333A"/>
<path transform="translate(772,724)" d="m0 0 2 1v23l-7 11-12 5v6l6-3 4-1h11l11 4 9 7 7 11 3 11v13l-3 12-6 12-9 10-9 6-8 3h-11l-6-2-7 1-3 1h-13l-10-4-6-4-5-5-7-10-4-8-2-8v-16l2-8 5-10 10-10 11-5h15l7 4-1-7-8-6-8-2-10-1 1-5h14l9 4 6 5v-11l4-9 10-9z" fill="#F34B4B"/>
<path transform="translate(674,286)" d="m0 0h11l2 28 8 26 1 4v79h-113v-75h20v14h67v-20l2-14 1-3z" fill="#1B353C"/>
<path transform="translate(506,672)" d="m0 0h20v1l-3 1-2 4 3 9v3l1 1-2 6 2 2-1 5v2l2 1h-2l1 4 1 25v177l-1 2h-32l-5-5-1-4v-135l2-14 15-75z" fill="#F34B4C"/>
<path transform="translate(588,765)" d="m0 0h77l1 1v25l4 5v2h2l1 4h2l1 6h2v82l-2 10h-2l-2 5-4 4-13 3h-57l-7-2-7-4-6-9-1-5v-11l71-1 2-12-4-2-2-2 1-9 4-8-1-28-1-8-69-1 1-6 6-9 3-3 1-6h41v-18h-43z" fill="#33824B"/>
<path transform="translate(268,216)" d="m0 0 5 1-2 9-2 6 11 4 6 4v2h2l5 10 2 5 4 5 1 2v12l-5 8-7 6-6 1h-8l-10-4-6-7-4-5-3-1-1 6-4 8-8 6-4 2-9 2v9l-4 6-3 3-6 1v2h-10l-4-2v-2l-4-1-4-5-1-10-4-2-5-8v-13l4-8 5-6 7-4h2l2-10 3-7 6-5 10-3 7-8 10-5h14l6 4 4-4h2v-2z" fill="#59A95A"/>
<path transform="translate(314,157)" d="m0 0h10l8 5 17 14 15 13 10 8 9 7 14 12 22 18 5 5 7 6 3 8-1 9-2 5h-2l-2 4-8 5-6 1-7-1-11-8-12-11-14-11-10-9-11-9-17-14-11-10-11-9-8-9-1-4v-9l5-10 5-4z" fill="#F38925"/>
<path transform="translate(659,125)" d="m0 0h27l12 2 2 2-5 10v11l6 19v7l-4 6-5 3-21 5-17 2h-19l-16-3-13-5-9-7-5-6-1-3v-8l4-8 9-9 10-6 16-6 16-4z" fill="#F24F49"/>
<path transform="translate(271,216)" d="m0 0h8l8 4 1 3 11-4h8l5 2 7 6 2 5v3h9l6 3 3 3v2h2l3 7v8l-1 3 6 1 8 7v2h2l2 6v10l-4 8-4 2 1 2-1 9-3 5-5 4-3 2h-10v-2l-5-2-5-6-1-6 1-2h-2v2l-12 4-8-1-6-4-5-5-1-6h-6v-1l7-2 7-6 3-6v-12l-4-6-2-2-1-7-2-1-2-6h-2v-2l-5-2-8-4-5-2 2-6 2-8z" fill="#32814B"/>
<path transform="translate(524,711)" d="m0 0h14l3 7 6 28 5 20 1 26v115l-2 5-4 3h-22v-179z" fill="#BA2E3E"/>
<path transform="translate(198,442)" d="m0 0h21l2 2v4l-20 1-2 1v3l22 1v166l-1 2-3 1h-19l-4-4-1-5v-167z" fill="#19323A"/>
<path transform="translate(496,287)" d="m0 0h73l2 1-1 5-13 33-8 25-2 45h-27l-1-3-1-39-6-20-9-26-7-19z" fill="#F8FAFA"/>
<path transform="translate(173,324)" d="m0 0 4 1 3 24 9-3h14l8 4 6 9 2 9v14l-4 11-11 16-7 9-6 5h-25l-6-4-6-7-10-15-3-9h2l3 4-4-19 3-13 4-5 7-2h17l3 3 1 58h2v-57l5-4 4-1h14l-1-1h-22l-7-6-20-5 1-4 3-1h7l8 4 1 1z" fill="#F24F49"/>
<path transform="translate(287,708)" d="m0 0h12l4 3 2 4v6l-10 2-8 4-5 4h-2l-2 4-6 10-4 13-1 5v19l3 13 8 18 4 8 2 1v2h2v2l3 1 3 3v2l5 2 4 3-7 1-20-4-16-8-10-8v-2l-3-1-9-12-6-15-2-17 2-16 5-12 7-10 4-5h2l1-3 11-7 15-7z" fill="#F27F20"/>
<path transform="translate(907,322)" d="m0 0h2l3 8v22l8-7 10-3h9l-2 7-3 7-6 10 5 2 5 9v15l-5 12-8 10-8 6-8 3h-8l-9-4-6-4-7-8-6-12-2-9 1-10 3-6 6-6 4-2-5-10-2-9v-8l5 2 14 9 3 5 2 1v2h2l-2-5v-15z" fill="#A22B38"/>
<path transform="translate(365,328)" d="m0 0h2l-3 9-6 12-4 9 2-3h2l2-5 4-2h21l3 2-8 11-5 5h-2l4 8v11l-4 10-9 12-7 7-10 6-9 3-6-1-6-3-4-5-3-9-4-21v-13l6-12 10-5v-20h3l11 10 3 3 3-9 5-5z" fill="#A22B38"/>
<path transform="translate(298,724)" d="m0 0h15l8 4 5 4 6 10 2 5v3h-2l1 3-2 2-3 6-3 7-2-1-1 6h-4l-4 2-1 4-1 2h-2v3l2 1h-2l-1 20-2 7-1-2-2 1v2l-4 2-3 1-7-1v-2l-5 1v-3l-2 4-9-16-4-13-2-7 1-19 4-13 6-10 8-8 8-4z" fill="#F37F1F"/>
<path transform="translate(596,183)" d="m0 0 5 2 12 6 13 4 22 2h11l20-2 9-2 23-5 8-1h11l6 2 1 2 25 1-1 4-4 8-5 1-4-2 2-4 4-4-9 7-1 1-17 3-14 5-2 2-7 3-5 5 20-10 7-2 6-2 5-1h16v3l-5 5-8 6-6 3-5 1h-14l-16-1h-14v-2l-4 1h-28l-15-3-14-5-13-9-4-5-5-5-6-9z" fill="#A32E38"/>
<path transform="translate(807,328)" d="m0 0h56v88l-1 7h-63l-1-4v-9l18-1h20l1-20h-38v-9h25l12 1 1-12h-38v-9h38l-1-15v-13h-15l-14-1z" fill="#95C1BB"/>
<path transform="translate(506,672)" d="m0 0h20v1l-3 1-2 4 3 9v3l1 1-2 6 2 2-1 5v2l2 1h-2l1 4-1 1-16 1-2 10-3 27-1 165h-9l-5-5-1-4v-135l2-14 15-75z" fill="#F5F8F8"/>
<path transform="translate(275,301)" d="m0 0h3l1 25v62l-1 30v5h-32l-1-77-7-8-8-9-8-1v-1l10-1 6-5 3 1v2l4 2 12 12 4 6 2 1 1-35 3-1v-2z" fill="#58A858"/>
<path transform="translate(445,642)" d="m0 0 13 1 9 4 8 7 4 10v8l-7 31-6 11-9 6-11 1-8-3-7-8-3-6-4-24-1-12 3-12 6-8 7-4z" fill="#FAFBFB"/>
<path transform="translate(452,268)" d="m0 0h2l-5 10-1 12 10 1 10 5 8 9 4 10 1 17 5 14 6 12 3 11v15l-5 14-7 10-8 7-12 6-10 2h-13l-13-4-11-7-7-8 1-3 4 2v2l9 1h17l13-5 10-8 5-8 2-6v-8l-5-17-1-38-2-7-4-7-7-5v-2l-6 1-1-5 2-15 3-6z" fill="#D04F1F"/>
<path transform="translate(729,230)" d="m0 0h7l5 4 2 2 7-6h8l5 3 3 6 4-2v-2l2-1h6l3 2v2h2l3 3h6l2 1-1 10-12 41v10h-77v-5l5-1 15-1 8-4 11-9 3-1v-2l5-4 6-8 7-11 3-9-9-1-68-1-1-4 1-1 10-1 2-5 4-3h10l5 5 4-5z" fill="#94C0BA"/>
<path transform="translate(732,313)" d="m0 0 6 1 8 5 4 4 1 4-1 3h-8l9 14 2 1-2-10 1-6h2l2-5 4 4 2 7-1 8 5-4 5-10-4 2-5-1v-6l6-7 8-4h4l-1 9-1 5h6l-1 9-3 8 4 1-3 14-2 3 5 1-3 11-4 6-6 3-9 1v36l-3 3h-5l-2-4v-36h-10l-6-4-4-7-1-9 3-2-4-12v-4l4-1-4-11v-5l3-1h3l-4-9z" fill="#F48D26"/>
<path transform="translate(387,127)" d="m0 0h9l8 2 8 5 7 8 4 10v13l-4 10-8 9-10 5-4 1h-10l-11-4-8-6-6-10-1-4v-15l3-8 7-9 12-6z" fill="#F6F9F9"/>
<path transform="translate(537,280)" d="m0 0h39l2 4-8 24-9 24-6 18-1 6v40l6 12v10l-4 4-2 1h-42l-4-3-1-3v-9l6-12v-41l-6-20-16-45-2-5v-4zm-41 7 3 10 13 37 6 20 1 39 1 3h27l2-45 10-30 11-28 1-5-2-1z" fill="#1B363D"/>
<path transform="translate(827,635)" d="m0 0h8l10 4 8 7v2l3 1 7 12 2 4 3 1 5 6 7 6 10 13 3 9 1 6v8l-3 12-5 10h-2l-2 4-4 4-9 6-10 3h-10l-10-2-10 2-14-1-3-1-1-3 6-1 2 1v-2l-3-1 6-3 2-3h3l1-2 1 3v1h2l1-2 4-1-2-2 1-1-10-3-1-5 8 4 5 1h9l10-4 5-4 4-7 2-5 1-8 2 1-1-5 1-1-2-2-1-7-1-5h-2l-2-5-5-5-14-26-8-9v-2l-10-1z" fill="#32814B"/>
<path transform="translate(588,765)" d="m0 0h77l1 1v25l4 5v2h2l1 4h2l2 9-99-1 1-6 6-9 3-3 1-6h41v-18h-43z" fill="#32814B"/>
<path transform="translate(224,639)" d="m0 0h13l7 3 8 6 5 8 7 25v13l-5 8-10 5h-11l-10-5-8-9-14-21-1-5v-7l4-11 8-7z" fill="#FBFCFC"/>
<path transform="translate(299,708)" d="m0 0h13l-3 3v8l7 3 10 5 7 9 6 13h1l2 14v21l-2 11-6 16-3 1-2 7-7 9-5 5v3l-6 1-2 1h-8v-2l-6-1-3-3v-2l-3-1-3-3v-2h-2v-2l-3-1-11-23-3-10-1-6v-19l4-15 5-10 5-7 12-8 6-2h7l-2-10-4-2zm-1 16-9 4-8 7-6 8-5 12-2 16v8l2 7 5 15 8 14 2-4 1 3 4-1v2l9 1 1-2 4-1v-2l2-1 1 2 2-10 1-17 2-1h-2v-3l2-1 2-2v-3l4-2h4l1-7 2 2 3-7 3-6 2-3-1-2h2l-1-5-5-10-4-5-6-4-5-2z" fill="#D2501F"/>
<path transform="translate(551,646)" d="m0 0h7l4 16 5 16 9 15 8 10 10 10 7 6 4 2v2l6 2v2l10 3 10 4 21 5 15 1 15-1 19-4 19-8 13-8 5-4h3l2-4 12-13 4-6h2v-3h2l1-5 4-9 4-11 3-17h9v10l-4 14-4 11-5 9-6 10h-2v3l-5 5-7 8-4 3h-2l-1 3-4 1v2l-15 9-15 7-15 4-18 3h-21l-23-4-9-3-9-4-17-9-1-3-6-2-13-13-8-9-10-17-7-19-3-19z" fill="#36854D"/>
<path transform="translate(400,777)" d="m0 0h11l1 1 1 14 4 9 5 5 16 10 2 2-2 4 1-1 3 3-1 3-1 4-3 6h-2l-1 2 2 1 1 2-3 4-5-9-10-9-9-5 2 11v25l-4 17-3 4-1-56-10 5-3 3h-2l-2 4-6 10-3 8-1 6v20l1 8-2-2-5-14-1-5v-10h-7l-3-4-1-5 2-13 6-10 3-4 4-4 17-10 4-4 4-11z" fill="#4B7169"/>
<path transform="translate(824,213)" d="m0 0 3 3 1 16 6-1 2 4-7 6-1 3v7l6-11 5-4 8-1-2 11-5 7-10 5-2 6 1 4 5-10 5-4 8-1 1 3-3 11-7 6-9 3-1 13 6-11 7-4 7-1-2 11-3 5-5 4 10-1-1 7-3 8-5 4-11 3-5 2-7-3-9-3-4-5-3-9v-4l9 2 7 6 3 6v2h2l-3-12-9-3-6-7-3-9v-5l6 2 9 7 4 7 3 1-4-10v-3l-6-2-5-3-4-7v-10l8 2-2 4h3v-2l4 2 4 9-1-14-9-2-6-5-2-13 6 1 8 5 4 8 1 1-2-9-6-7 1-4 8 2v-18z" fill="#F49128"/>
<path transform="translate(769,767)" d="m0 0h10l10 4 7 6 7 11 3 11v13l-3 12-6 12-9 10-9 6-8 3h-11l-6-2-7 1-3 1h-13l-10-4-6-4-1-4h14l17-5 16-8 12-11 7-14 2-10v-11l-4-9-5-5z" fill="#A12B38"/>
<path transform="translate(891,477)" d="m0 0 6 1 3 2 1 3v101l-4 5-5 1h-12l-5-2v-99h21l-1-4-20-1v-6z" fill="#1A333B"/>
<path transform="translate(175,477)" d="m0 0 15 1v6l-19 1-1 4h20v99l-10 2h-9l-5-3-1-2v-103l4-4z" fill="#19323A"/>
<path transform="translate(384,636)" d="m0 0 3 1 1 3-3 1-2 12v12l1 5 6-2 10 1 8 7 3 7v13l-5 10-6 7-11 5h-15l-10-5-6-5-5-9-2-7v-7l3-9 4-5 6-3h8l5 3v-23l1-4h2l1-4h2z" fill="#F14D4A"/>
<path transform="translate(154,650)" d="m0 0h14l8 3v2l5 1 9 8 5 8v15l-5 9-8 6-4 2h-14l-13-9v-2l-4-2-5-8-3-10v-7l3-7 5-6z" fill="#3E964E"/>
<path transform="translate(835,680)" d="m0 0h11l10 4 6 5 5 8 1 3v12l-4 9-5 6-10 5-3 1h-9l-9-3-8-7-3-4v-5l-2 1-1-3v-12l5-10 8-7z" fill="#19343B"/>
<path transform="translate(677,808)" d="m0 0h1v73l-29-1 1-12-4-2-2-2 1-9 4-8-1-28-1-8-2-1h31z" fill="#95C1BB"/>
<path transform="translate(499,287)" d="m0 0h70l2 1-1 5-13 33-8 25-2 45h-13v-79l4-11 9-16 1-1-49-1z" fill="#95C1BB"/>
<path transform="translate(391,217)" d="m0 0 1 3-5 5-13 14-1 4h2l2 2 2-1v2h2l2-4 7-8 9-9 5-1-1 4-12 12-6 7 1 3 1 1 2-3v2h2v3l9-10 12-12 5 1 6 5 5 5 4 5 2 6-1 9-2 5h-2l-2 4-8 5-6 1-7-1-11-8-12-11-14-11-5-7-2-2 8-2 2 1 2-4 14-14z" fill="#D25121"/>
<path transform="translate(287,708)" d="m0 0h12l4 3 2 4v6l-10 2-8 4-5 4h-2l-2 4-3 3v-2l-4-2h3l-5-1-1 3-6 3-4 5 1 3-6 3-3 7-5 12v4l-4-1-2 3-8-1-2-5v-9l4-13 5-9 8-10h2l1-3 11-7 15-7z" fill="#F49C2E"/>
<path transform="translate(632,138)" d="m0 0h24l15 6 8 7-3 1-7-1-3 9-5 6-12 6-9 2-16-1-8-3-5-5-1-2v-9l4-6 4-2v-2l8-4z" fill="#F24E49"/>
<path transform="translate(314,157)" d="m0 0h10l8 5 17 14 15 13v3l-6 2-13 12-3 5h-4v-2l-5-1 2-5 7-8 7-7 1-4-8 7-9 9h-2l1-6-4-1 2-4 8-8 3-5-5 2-5 5-4 6-5 5-4 2h-4l-1 2-8-7-4-5-1-4v-9l5-10 5-4z" fill="#F49B2D"/>
<path transform="translate(332,355)" d="m0 0 9 1 9 6 4 5 1 3v10l-4 10-7 8-7 6-3 7-1 7-2 1-2-1v2l-4-2-5-8-5-26v-13l2-5 3 3 4-7 4-5z" fill="#F34C4B"/>
<path transform="translate(156,353)" d="m0 0h17l3 3v59h-8l-7-5-6-9-3-5-4-8-4-4-2-13 3-11 4-5z" fill="#F4484E"/>
<path transform="translate(904,496)" d="m0 0h18l3 3 1 3v22h28l2 3-1 4-2 2h-27l-1 25-3 3-4 1h-8l-6-1-1-5 1-49h16v-5h-17v-5z" fill="#1B353C"/>
<path transform="translate(145,496)" d="m0 0h17v6l-15 1-1 4h16v54l-16 1-5-4-1-11v-14h-28l-3-2v-5l2-2h29l1-25z" fill="#1B363C"/>
<path transform="translate(297,648)" d="m0 0h14l9 6 5 5 8 9 4 7-1 2-11-7-6-5-1 6-6 10-9 7-5 2h-10l-6-3-5-6-1-3v-10l5-8 9-9z" fill="#EF4A4A"/>
<path transform="translate(445,642)" d="m0 0 13 1 9 4 8 7 4 10v8l-7 31-6 11-9 6-11 1-8-3-7-8-3-6-4-24-1-12 3-12 6-8 7-4zm-2 4-8 4-6 7-2 5-1 8 8 32 4 6 4 4h8l6-5 4-9 4-18v-18l-4-8-8-7z" fill="#94C0BA"/>
<path transform="translate(735,189)" d="m0 0 2 2 25 1-1 4-4 8-5 1-4-2 2-4 4-4-9 7-1 1-17 3-14 5-2 2-7 3-5 5 20-10 7-2 6-2 5-1h16v3l-5 5-8 6-6 3-5 1h-14l-16-1h-14l-1-3 9-9 7-8 10-7 8-4 7-1h10z" fill="#409650"/>
<path transform="translate(884,363)" d="m0 0h18l6 2 4 8v11l-4 14h-3l-2 3-2 1-1 3-2 2-2-1-4 3h-2l-3 2-7-6-1-2-2 1-5-12-1-11 3-10 7-7z" fill="#F24D4B"/>
<path transform="translate(173,324)" d="m0 0 4 1 3 24 9-3h14l8 4 6 9 2 9v14l-4 11-11 16-7 9-6 5h-25l-6-4-6-7-10-15-3-9h2l3 4-1-8 5 5 3 7 3 5 6 8 6 5 8 1 1-3v2h2v-6h1v7l9-2 3-2 1-3h2l2-4 6-8 3-3 4-9 1-10-2-10-1-8-12-2v-1l6-1-1-1h-22l-7-6-20-5 1-4 3-1h7l8 4 1 1z" fill="#EF7B21"/>
<path transform="translate(271,732)" d="m0 0h3l-1 3 2 1-1 5-5 13-2 9v19l2 11-1 4-1-4-4 2v-4-2h-2v-2h-2l1 4-3 3v-2h-2v-2h-2v-2l-2 1 5 5-9-1 2 1-1 3h-3v-3h-2l-1 2-2-4-7-5-2 4-2-8-1-14h2l1 4 8 2 2-4 3 1 1-6 4-9 3-7 6-4-1-3 8-7 3-1z" fill="#F48F26"/>
<path transform="translate(547,395)" d="m0 0 7 1 6 12v10l-4 4-2 1h-42l-4-3-1-3v-9l6-12z" fill="#D04E21"/>
<path transform="translate(280,291)" d="m0 0h8l3 7 7 6 6 2 8-1 8-2v-2h2v6l4 6 6 4-1 4-5 5-4 2h-10l-9-6-23 23z" fill="#19323A"/>
<path transform="translate(298,724)" d="m0 0h13v3h-2l-1 5h-2v2l5 1-3 4v7l-4 5h-2l-1 3-5 1-1 5 1 5h-3v2l-6 2-2 6h-4v-6l1-3-2-1v3h-3v10l-1 2h-4l-1 2v-3h-3l1-19 4-13 6-10 8-8 8-4z" fill="#F39C2E"/>
<path transform="translate(337,176)" d="m0 0h4l-2 5-10 10v2l4 1-2 6 8-7 9-9h2l-1 5-12 12-4 7 5 1 4 2 2-5 9-9 6-5 8-1 11 9 6 5-4 4-8 7-11 12-5-1-3-1 1-5 9-9 7-8 3-4-5 2-21 21-1 3-14-11-12-11-6-5v-3l7-2 4-5h2l2-5 4-4h2z" fill="#F48F27"/>
<path transform="translate(419,304)" d="m0 0 1 3h2l2 3 4 2-1 2 1 7-2 2-1 5v12l1 6v6l-1 2 2-1-1 4 2 1-2 3 1 5-1 6h-2l1 5-4 4h-2l-1 3-3-3-1 2h-6l-6-4-2-4-1-9 4-11 8-16 2-7 1-17 4-10z" fill="#F49E31"/>
<path transform="translate(299,708)" d="m0 0h13l-3 3v8l7 3 10 5 7 9 6 13h1l2 14v21l-2 11-6 16-3 1-2 7-7 9-5 5v3l-12 1 5-5 3-4h2l2-4 5-7h2l2-8 8-18 1-8v-29l-5-14-6-9-6-4-5-2-15-1-1 2-7 2-10 9-6 10-4 13-1 19 2 7 5 15 8 14 14 15 6 7-6-1-3-1-3-3v-2l-3-1-3-3v-2h-2v-2l-3-1-11-23-3-10-1-6v-19l4-15 5-10 5-7 12-8 6-2h7l-2-10-4-2z" fill="#912C3A"/>
<path transform="translate(390,668)" d="m0 0 10 1 8 7 3 7v13l-5 10-6 7-11 5h-15l-10-5-6-5v-3l16-1 8-3 7-8 2-5v-8l-4-7-3-1v-2z" fill="#B92E3E"/>
<path transform="translate(303,321)" d="m0 0 9 6v4h-2l-1 4-7 8-3 3-1 76-1 1-18-1 1-3h3v-2l-3-2h2l-3-4 1-2-1-1v-2h3v-8-3h6v-52l1-5-2-1z" fill="#32804C"/>
<path transform="translate(263,290)" d="m0 0h1l-1 54-7-6-16-16-4 2-4 3h-13l-7-6v-4l7-3 4-5 2-5 1-6 8 6 11 2 9-3 6-5z" fill="#19323A"/>
<path transform="translate(729,230)" d="m0 0h7l5 4 2 2 7-6h8l5 3 3 6 4-2v-2l2-1h6l3 2v2h2l3 3h6l1 1v5h-24l-79-1-1-4 1-1 10-1 2-5 4-3h10l5 5 4-5z" fill="#BF323E"/>
<path transform="translate(769,647)" d="m0 0h6v8l-4 16-7 15-1 3h-2v3h-2l-2 4-9 11-7 8-7 4-9 6-16 8-13 4-16 3-13 1-16-1-9-2 4-3h33l-1-3 18-3 16-6 13-7 11-8 10-10 10-15 7-14 5-18z" fill="#9BC4BF"/>
<path transform="translate(907,322)" d="m0 0h2l3 8v22l8-7 10-3h9l-2 7-3 7-5 8-10-1-34-2-3-4-3-9-1-5v-8l5 2 14 9 3 5 2 1v2h2l-2-5v-15z" fill="#5BA95F"/>
<path transform="translate(209,716)" d="m0 0h7l5 4 1 3v11l-5 9-7 7-4 2h-8l-8-5-6-7-3-9 1-9 6-5h7l6 4 6-2v-2z" fill="#F05650"/>
<path transform="translate(224,639)" d="m0 0h13l7 3 8 6 5 8 7 25v13l-5 8-10 5h-11l-10-5-8-9-14-21-1-5v-7l4-11 8-7zm0 4-9 6-4 5-2 7 1 7 3 7 7 7 9 12 5 4 9 1 8-4 4-7v-13l-4-16-6-9-7-6-3-1z" fill="#93C0B8"/>
<path transform="translate(592,286)" d="m0 0h18v44l-7 14h-19l1-7 6-19z" fill="#1B353C"/>
<path transform="translate(531,249)" d="m0 0 5 2 5 4v7h2l3 3 6 2 4 8h3v-8l-2-1 1-2 1-9 2-1 5 2v2h2l3 4v7l-1 2 6-4h5l4 3v7l-2 3-6 2-5-1h-83v-1h35l-1-8-1-4 6-1 3-11z" fill="#CC4B22"/>
<path transform="translate(577,881)" d="m0 0h1l1 6 5-1h40l21 1-1 4-4 5-10 6-10 3-10 1h-11l-13-4-4-3v-2h-2l-1 2-2-7z" fill="#59A958"/>
<path transform="translate(589,786)" d="m0 0h1v7l4-1h25l10 2 5 3 9 8 2 5h-67l1-6 6-9 3-3z" fill="#59A95A"/>
<path transform="translate(778,345)" d="m0 0 5 1-1 9-3 7 5 1-3 11-4 6-6 3-9 1v36l-3 3h-5l-1-37-1-10v-10h4l-3-9v-9l4-2 4 1v15l2 4v13l6-12 5-3 1-2h-2l-1-5 5-1 2-4 1-3-9 1 1 3-2 3h-2v-5h2l1-3h5v-2z" fill="#EF7321"/>
<path transform="translate(311,724)" d="m0 0 7 2v3l-3-2 1 10-3 20-2 7-1 3-3 2v2l-3 1-2 4h-2v2h-3l-1 3 1 3-2 1-4-1-5 1 3 3-4 1v-2h-2l2 3-1 3-4-4v2h-6l1 1 3 12-3-3-5-15-1-7 7 1 1-12h3v-3l3 1-2 9h4l2-7 6-1v-2h3l-2-5 1-5 4-2h2l6-7v-7l3-4-4-1v-2h2l1-7z" fill="#F48F26"/>
<path transform="translate(845,273)" d="m0 0h3l-2 11-3 5-5 4 10-1-1 7-3 8-5 4-11 3-5 2-7-3-9-3-4-5-3-9v-4l9 2 7 6 3 6v2h2l-1-8 1 2h5l-3-7 4-1-2-8 2-9h1v12l6-11 7-4z" fill="#F49027"/>
<path transform="translate(154,650)" d="m0 0h14l8 3-3 8-9 12-7 13-2 8-7-2-6-9-3-10v-7l3-7 5-6z" fill="#5BA95E"/>
<path transform="translate(596,183)" d="m0 0 5 2 12 6 13 4 22 2h11l12-1-2 2-5 1-21 1 8 8 5 6v2l4 2 1 2h-20l-12-4-10-5-10-8-8-9-5-8z" fill="#F05545"/>
<path transform="translate(440,290)" d="m0 0 4 2 2 5-3 2-7 14-1 4-1 27-1 14-2 11v6l-3 1-1 6-2-1-1 5-6 3-2-1-1 3-2-1-5 3-2-3-2 5-2-2-3-9v-12l2 1v3l7 6h6l4-1v2l1-2h2l1-5 2 1 1-2-2-1 1-2h2v-2l-2-1 2-1 1-6-2-1 2-3-1-4-3 2 2-5v-7l-1-4v-12l2-6 1-1-1-8 1-1-5-3v-2l-3 1 2-5 4-3v8l3-1 2-3 4-2 2-5 2 2-1-5h-2v2l-4-1 5-2v-2z" fill="#F49027"/>
<path transform="translate(888,622)" d="m0 0 7 2 12 9 8 7 3 6v11l-4 6-5 4-2 1h-9l-8-4-12-9-1-4 1-3h2v-2l7 1 11 8h7l1-1v-6l-7-6-13-8v-2h-2v-6z" fill="#F37F20"/>
<path transform="translate(588,765)" d="m0 0h77l1 1v20l-4 1-7-1h-25v-18h-43z" fill="#A52B3A"/>
<path transform="translate(768,647)" d="m0 0 1 4-6 21-6 11-8 12-9 10-10 9-16 9-14 6-14 3-8 1h-22l-14-2-10-3v-1l8 1 12 2h20l4-1h4l1-2v2l4-2h5v-2h4l4-1 1-2v2h2l1-4 5-2v2h3v-2h3l2-3 5-3h2v-3l4-2 5-5 5-6 2-3h2l2-4 4-1v-2h2l-1-4 4-3 1-3h4v-2l-3 1 2-6 5-8 1-3 2-1 4-9z" fill="#B92F3E"/>
<path transform="translate(838,409)" d="m0 0h23l2 4-1 10h-63l-1-4v-9z" fill="#33834B"/>
<path transform="translate(772,724)" d="m0 0 2 1v23l-7 11-12 5-2 9h-4l-4-10-9-6-16-2 1-5h14l9 4 6 5v-11l4-9 10-9z" fill="#337A4E"/>
<path transform="translate(472,215)" d="m0 0 5 2 9 8 2 2-4 7-3 3-2 3h-2l-2 5h-2l-2 4-5 6-7-5v-2l-4-2-9-11-5-4-2-5h14l7 3 4 3 7-14z" fill="#5AA95C"/>
<path transform="translate(776,313)" d="m0 0h4l-1 9-1 5h6l-1 9-3 8 4 1-1 2-5-1h-2v2l-5 1-1 2h-2v5h2l1-6 2-1h7l-1 4-2 3h-2l-1 2-1 4h2l-1 3-5 2-2 6-4 7h-1v-16l-2-2 1-14 4-5-3 3h-3l1-4 4-1 3-4 4-8-4 2-5-1v-6l6-7z" fill="#F49329"/>
<path transform="translate(503,113)" d="m0 0 9 1h19l-4 2-13 4-9 5-3 3-8 7-3 1-2 4-9 14-4 14-4-1-3-4v-14l3-10 8-11 8-7 8-2 7-4z" fill="#4C726A"/>
<path transform="translate(387,127)" d="m0 0h9l8 2 8 5 7 8 4 10v13l-4 10-8 9-10 5-4 1h-10l-11-4-8-6-6-10-1-4v-15l3-8 7-9 12-6zm-2 5-10 5-7 8-3 9v9l4 10 7 8 8 4 10 1 10-3 6-4 6-7 3-10v-7l-3-10-8-9-10-4z" fill="#213E42"/>
<path transform="translate(551,646)" d="m0 0h7l4 16 5 16 9 15 8 10 10 10 2 1 1 4 5 5h-3v3l-4-2-2 1-8-7-5-4-9-11-7-11-7-14-5-16-2-15z" fill="#5AA95E"/>
<path transform="translate(494,698)" d="m0 0 2 1v2l3-1v5l1 3-11 54-2 16h-2l-1 6v8l-2 5h-1l-1 102h-1v-130l4-22 10-47z" fill="#1E393F"/>
<path transform="translate(151,596)" d="m0 0 7 2 4 5v9l-4 6-10 10-6 3-8-1-5-5-1-2v-7l4-6 10-10z" fill="#F14D4A"/>
<path transform="translate(306,648)" d="m0 0 7 1 11 8 9 11 4 7-1 2-11-7-6-5-1 6-6 10-9 7-5 2h-10l-6-3-5-6v-3h2v2l11-1 12-6 8-9 1-6-2-5-3-3z" fill="#A42D37"/>
<path transform="translate(276,300)" d="m0 0h3l1 3 1 41 5-6h3v62h-1v-5l-5 1v3l-1 4 4 1h-4v2l3 1-6-1v2h2l-1 3 2 4 2 2-1 2 6 1v3h-11l-1-5 1-30v-87z" fill="#3E964E"/>
<path transform="translate(792,176)" d="m0 0h6l5 3 2 4v7l-2 7-5 3h-2l-2 5-6 3-7-1-4-5v-2l-4-2-2-3 1-7 3-3 4-2 7-1 5-5z" fill="#F48F26"/>
<path transform="translate(485,777)" d="m0 0 2 1v119l-3-1-1-6h-3v-96l2 1 1-3v-10z" fill="#18323A"/>
<path transform="translate(501,98)" d="m0 0h15l11 4-3 1h-8l-15 4-14 8-9 7-8 10-5 10-3 13h-2l-2-6v-11l3-10 7-11 10-9 10-6z" fill="#EFF5F4"/>
<path transform="translate(578,649)" d="m0 0h160l2 1v3l-80 1h-80l-4-2z" fill="#FBFCFC"/>
<path transform="translate(154,346)" d="m0 0h13l9 3 5 1h20l2 3h-15l-7 3-1 1-1 57h-2l-1-2-1-56-2-2h-17l-7 2-4 6-2 11 4 19h-3l-1-4v3l1 4-3-3-4-11v-14l3-10 7-8z" fill="#F39028"/>
<path transform="translate(632,138)" d="m0 0h24l15 6 8 7-3 1-7-1-3 9-5 6-12 6-9 2-16-1-8-3-5-5-1-2v-9l4-6 4-2v-2l8-4zm1 4-12 5-6 7v6l4 6 13 4h8l13-4 8-7 1-8-4-6-6-3z" fill="#FAFBFB"/>
<path transform="translate(315,727)" d="m0 0h4l7 5 6 10 2 5v3h-2l1 3-2 2-3 6-3 7-2-1-1 6h-4l-4 2-1 4h-3v-9l4-26 1-8z" fill="#F07220"/>
<path transform="translate(240,806)" d="m0 0 4 1 13 5 13 2 9 1 3 6 2 1v2h2v2l3 1 3 3v2l5 2 4 3-7 1-20-4-16-8-10-8v-2l-3-1-5-7z" fill="#D15020"/>
<path transform="translate(544,239)" d="m0 0h8l5 3 5 6 11 1 6 5 2 5v6l3 3-1 2-2-2-7 1-4 2v-9l-2-4h-2v-2l-6-1-1 9v3 8l-3 1-3-5-2-4-7-2-1-3-2-1h2l2-4 4-4h4l-6-3-3-8z" fill="#F27E1F"/>
<path transform="translate(513,396)" d="m0 0h34v1l-13 1v25h-22l-4-3-1-3v-9z" fill="#F27D1F"/>
<path transform="translate(409,729)" d="m0 0h8l7 6 1 3v7l-4 8-8 5h-9l-6-4-2-2-1-6 2-7 5-5 5-4z" fill="#F24D4A"/>
<path transform="translate(173,324)" d="m0 0 4 1 3 24 9-3h14l8 4 6 9 2 9v14l-4 11-9 13-1-2-2-1 3-3 5-13 2-11v-11h-2l-3-9-12-2v-1l6-1-1-1h-22l-7-6-20-5 1-4 3-1h7l8 4 1 1z" fill="#F49028"/>
<path transform="translate(312,708)" d="m0 0h9l15 4 11 6 3 3-5 1v3h-2v2h3l-1 3v-2h-5l1 8-6-1 4 1v2h-4l-1 2-7-11-8-5-9-3-2-2v-8z" fill="#F28021"/>
<path transform="translate(450,763)" d="m0 0 7 1 6 5 2 6v8l-4 6-5 3h-10l-7-6-2-4v-9l3-5h2l1-3z" fill="#F48F27"/>
<path transform="translate(869,447)" d="m0 0h2l1 10v21l-5-2-1-3-4 1-5 1-1-1-4 1 3-5 4-3-1-1-5 5-6 2 3-5-2-1-1 3-3-6v-6l2-2 3-2h-7v-5l2-1h20l3 4v-3h2z" fill="#223E43"/>
<path transform="translate(172,370)" d="m0 0h3v10l-9 10-9 9 8-6 7-7 3-1v14l-11 11h-3l-6-9-3-5-4-8-1-4 24-13z" fill="#F4484E"/>
<path transform="translate(434,342)" d="m0 0 2 2 2 11 1 4h-2v3l2 1-1 1 2 1v4 3l1 1h4v2l-2 2-4 1 2 5h-2v-2h-2l1 3-3 1-1 4-2 1-3-1 1 2 4 2-4 1 1 3h-6l-1 3-1-2h-5l-2 3h-2v2l-4-1h-3l-3-5 1-10 4 5 4-2 1-2 1 2 1-2h3l1-2h3l2-8 2 1v-4h3l1-14 1-3 1-14z" fill="#F27F1F"/>
<path transform="translate(672,326)" d="m0 0 1 2-2 14-1 20h-46v-1l8-1 14-10 16-13 8-8z" fill="#95C1BB"/>
<path transform="translate(176,655)" d="m0 0 5 1 9 8 5 8v15l-5 9-8 6-4 2h-14l-13-9v-2h2v2l6 1h12l6-3 5-5 1-5v-11l-7-15z" fill="#34804D"/>
<path transform="translate(657,836)" d="m0 0h8l5 6-2 16-4 8-4 3-8 1-6-4-2-2 1-9 8-15z" fill="#A32D37"/>
<path transform="translate(336,167)" d="m0 0 5 2 11 10 11 9 2 3-7 3-13 12-3 5h-4v-2l-5-1 2-5 7-8 7-7 1-4-8 7-9 9h-2l1-6-4-1 2-4 8-8 4-8-4-2z" fill="#F49228"/>
<path transform="translate(337,176)" d="m0 0h4l-2 5-10 10v2l4 1-2 6 8-7 9-9h2l-1 5-12 12-4 7 5 1 4 2 2-5 9-9 6-5h3l-2 5-13 13-4 7 2 4-9-3-11-9-11-10v-3l7-2 4-5h2l2-5 4-4h2z" fill="#E86C21"/>
<path transform="translate(434,181)" d="m0 0 8 1 7 6 1 3v9l-4 6-5 3h-9l-5-3-3-3-1-3v-10l4-5h2v-2z" fill="#F25B58"/>
<path transform="translate(269,177)" d="m0 0h9l5 3 4 4 1 3v7l-3 6-6 4h-9l-6-3-4-8v-6l3-6h2v-2z" fill="#EF5245"/>
<path transform="translate(425,96)" d="m0 0h9l7 5 1 2v10l-3 6-7 6h-5l-6-4-5-8v-9l5-6z" fill="#F1544C"/>
<path transform="translate(508,647)" d="m0 0h22l8 4 1 3v8h-43l1-9 6-5z" fill="#35804E"/>
<path transform="translate(903,604)" d="m0 0 7 1 14 11 5 5v2h2l3 7v10l-3 5-4 1-4-2-1-12-5-5-18-14 1-7z" fill="#EF7622"/>
<path transform="translate(299,708)" d="m0 0h13l-3 3v8l7 3v2l2 1-20-1-1 2-7 2-10 9-6 10-4 13-1 19 2 7 5 15 8 14 14 15 6 7-6-1-3-1-3-3v-2l-3-1-3-3v-2h-2v-2l-3-1-11-23-3-10-1-6v-19l4-15 5-10 5-7 12-8 6-2h7l-2-10-4-2z" fill="#5F3436"/>
<path transform="translate(840,388)" d="m0 0h23v25l-2-3h-45v-1h20l1-20z" fill="#95C1BB"/>
<path transform="translate(799,360)" d="m0 0h63v9h-63z" fill="#5AA85D"/>
<path transform="translate(909,437)" d="m0 0h9l7 6 2 4v6l-4 6-5 4-7 1-6-2v-2l-3-1-2-3v-12l6-5z" fill="#F05246"/>
<path transform="translate(807,328)" d="m0 0h56l-1 17-1 1h-24l-1-1v-13h-15l-14-1z" fill="#32824A"/>
<path transform="translate(209,716)" d="m0 0h7l5 4 1 3v11l-5 9-7 7-4 2h-8l-3-3 4 1 3 1v-28l3-4h2v-2z" fill="#B9303D"/>
<path transform="translate(798,328)" d="m0 0h9v3h14l15 1 1 14-38-1-1-1z" fill="#60AC64"/>
<path transform="translate(709,380)" d="m0 0h2v3l3 1v2l8-3 5 1 1 2v13l-3 9-1 7-3 3v-2l-4-2-12-17v-8z" fill="#35834D"/>
<path transform="translate(732,313)" d="m0 0 6 1 8 5 4 4 1 4-1 3h-8l9 14 2 2-1 1 1 12 1 5-4-2-5-6-1-3v-8h-5l-2-2-1 2-4-1h2l-4-11v-5l3-1h3l-4-9z" fill="#F48F27"/>
<path transform="translate(737,206)" d="m0 0h16v3l-5 5-8 6-6 3-5 1h-14l-16-1v-1h7v-3l-2-1 14-6 9-4z" fill="#5AA95C"/>
<path transform="translate(845,258)" d="m0 0h1l-1 9-7 6-10 4-2 11 1 6-3 2 2 6h-5l-3-6-9-3-6-7-3-9v-5l6 2 9 7 4 7 3 1-2-9v-6l7-2 4 1 2-4 3-3h2l2-4h2v-2z" fill="#F27D1F"/>
<path transform="translate(320,163)" d="m0 0h7l2 6 3 2 1 4-5 4h-5l-9-6-4-1 2 5 9 7 4 1v-5l1 2 3 1-2 6-5 5-4 2h-4l-1 2-7-6 1-3h1v-2l-5-1-2-5v-7h1l1 8h2l-1-4 4-1-1-3 3-5 5 1h2l1-6z" fill="#F49027"/>
<path transform="translate(860,379)" d="m0 0h2v10h-63v-9h37z" fill="#3C934E"/>
<path transform="translate(365,328)" d="m0 0h2l-3 9-11 22-2 1-12-6-7-1-1-1v-18h3l11 10 3 3 3-9 5-5z" fill="#3A8750"/>
<path transform="translate(648,236)" d="m0 0h8l6 3 5 6 2 9 5 3-1 5-4 1-7-6-3-1-3-10h-8l-3 9-6 4h-2l-1 3-5-1-1-4 5-4 2-9 8-7z" fill="#F37F20"/>
<path transform="translate(513,672)" d="m0 0h13v1l-3 1-2 4 3 9v3l1 1-2 6 2 2-1 5v2l2 1h-2l1 4-1 1h-16v-8l4-28z" fill="#94C0BA"/>
<path transform="translate(544,143)" d="m0 0h10l5 2v1l-13 2-12 5-11 8-8 9-6 12-2 8 1 10 3 6 4 3-7-1-5-6-2-5v-11l4-12 9-13 7-7 11-7 8-3z" fill="#95C1BB"/>
<path transform="translate(838,693)" d="m0 0h6l6 4 3 4v8l-4 7-4 2h-8l-7-6-1-3v-7l3-5 3-3z" fill="#F5F9F8"/>
<path transform="translate(584,211)" d="m0 0 6 4 7 7 11 9 7 8 5 5-2 5-4 2-8-7-10-9-8-7-8-8 2-6z" fill="#EF7A21"/>
<path transform="translate(618,98)" d="m0 0h8l5 3 3 5-1 9-5 6-2 1h-8l-6-4-2-3v-10l4-5z" fill="#F48B26"/>
<path transform="translate(561,314)" d="m0 0 5 1-2 9-9 26-1 6-1 40h-5l-1-1v-19l1-25 10-30z" fill="#1C373D"/>
<path transform="translate(278,719)" d="m0 0h7l1 4-18 8-9 7-9 10-5 12-2 5-5-1 1-9 3-9 8-11 7-7 16-8z" fill="#FBFCFC"/>
<path transform="translate(393,147)" d="m0 0 9 1 3 5 1 9-2 3-6 1v-2h-2l-2 4-3 3-4 1-6-3-3-5v-7l5-5h8l2 1z" fill="#5BA95D"/>
<path transform="translate(582,95)" d="m0 0h8l6 4 2 6-1 7-4 6-9 1-7-3-3-6 1-9 5-5z" fill="#65AE68"/>
<path transform="translate(909,366)" d="m0 0h3l1 6h2v2l2 1h-2v2h-2v2l4 1h-2v2h2v4h-4l1 2h-2v2l2 1-2 1v3l-2 2 1 5-3 1-1 3h3l-1 2h-2l-1 4 2 1h-2v2l3 1v3l-5 1-1 2-10-2-7-5-7-8-1-5 2 1v2l4 2 4 3 4-3 4-1 1-3 1 3 3-6 2 1 2-5 2 1 4-13v-11z" fill="#BD303F"/>
<path transform="translate(705,297)" d="m0 0h66l10 1v5h-77v-5z" fill="#203B41"/>
<path transform="translate(729,230)" d="m0 0h7l-1 6h-2v8h-2l-1-2-5-1v2l-5 3h-30l-1-4 1-1 10-1 2-5 4-3h10l5 5 4-5z" fill="#F49328"/>
<path transform="translate(374,824)" d="m0 0h7l2 6-9 16-4 10-1 1h-6l-3-4-1-5 2-9 5-8 5-5z" fill="#F2F6F6"/>
<path transform="translate(532,711)" d="m0 0h6l3 7 6 28 5 20 1 26v115l-2 5-4 3h-22l2-2 17-1 5-1 1-3v-140l-8-32-3-15-3-6-7-2z" fill="#A02B38"/>
<path transform="translate(180,367)" d="m0 0 5 2 10 7 15 8-1 4-3 6-5 4-14-11-7-6z" fill="#F4484E"/>
<path transform="translate(526,672)" d="m0 0h4l5 24 3 11v4h-13l-2-7 1-5-2-2 2-5h-2v-2h2l-1-5-2-2-1-7v-1l-1-2z" fill="#527870"/>
<path transform="translate(364,348)" d="m0 0h21l3 2-8 11-5 5-8-1-14-3 2-5 1-2h2l2-5z" fill="#378150"/>
<path transform="translate(506,316)" d="m0 0 2 3 10 31 1 4 1 43h-6l-1-42-6-20-5-14 1-3h2z" fill="#243A40"/>
<path transform="translate(878,335)" d="m0 0 5 2 14 9 3 5 4 4 2 6h-21l-3-4-3-9-1-5z" fill="#35864B"/>
<path transform="translate(735,361)" d="m0 0 5 2 6 1v2l5 1 2 9 1 10v36l-2-3v-36h-10l-6-4-4-7-1-9z" fill="#F49229"/>
<path transform="translate(715,158)" d="m0 0 4 1 9 8 8 6 1 3-2 3-21 2-9 1 1-5 8-16z" fill="#EF7D21"/>
<path transform="translate(307,779)" d="m0 0 5 1-2 1v3l2 1h-2l-1 20-2 7-1-2-2 1v2l-4 2-3 1-7-1v-2l-5 1v-3l-2 4-5-9 3 1v2h2l1-5 4 1 1 1 3-3 3-2 5 1v-2l-2-2 4-2-2-1 2-4 4-4h-2v-2l5-1-2-1z" fill="#F17220"/>
<path transform="translate(798,410)" d="m0 0 2 1h33v2h2v9h-24l-10-1v2l-3-1z" fill="#5BAA5C"/>
<path transform="translate(778,345)" d="m0 0 5 1-1 9-3 7 5 1-3 11-4 6-6 3-10 1v-13h1l1 8 6-12 5-3 1-2h-2l-1-5 5-1 2-4 1-3-9 1 1 3-2 3h-2v-5h2l1-3h5v-2z" fill="#F48D26"/>
<path transform="translate(757,736)" d="m0 0 1 4 2 5-3 11h-2v8l-2 9h-4l-4-10-9-6-16-2 1-5h14l9 4 6 5v-11l4-9z" fill="#429652"/>
<path transform="translate(723,139)" d="m0 0 4 1 4 4v2l4 2 5 9 1 4v7l-4 1-9-6-10-9 1-6z" fill="#F38E27"/>
<path transform="translate(172,355)" d="m0 0 4 1v59h-8l-5-5 11-11v-13l-16 14-2-1 16-16 2-3 1-10-11 6-17 9-1-3 20-11 7-5h2l-1-3 1-4-10 3-12 6-9 3v-2l9-4 17-8 2-1z" fill="#B32D3D"/>
<path transform="translate(208,358)" d="m0 0 3 4v3h2l1 13-3 13-5 10-2 2 1 5-8 10-7 4-13-1 2-2-7-2-4-2h8l1-3v2h2v-6h1v7l9-2 3-2 1-3h2l2-4 6-8 3-3 4-9 1-10-2-10z" fill="#EF7A20"/>
<path transform="translate(500,666)" d="m0 0h28l-1 2h-3l-1 3-2 1h-15l-1 10-5 24-2-1v-4h-2l-2-3 1-8 4-22z" fill="#1A353C"/>
<path transform="translate(230,656)" d="m0 0h6l4 2 4 6v9l-4 5-7 1-6-3-3-4v-11l4-4z" fill="#F49228"/>
<path transform="translate(824,727)" d="m0 0 8 4 5 1h15l3 2-7 2v-2l-4 4h1v6l-2-2-3 1v-2l1-1h-3v3l-3 3h-4l11 3 1 2-6 1-14 1-11-2-1-3 6-1 2 1v-2l-3-1 6-3 2-3h3l1-2 1 3v1h2l1-2 4-1-2-2 1-1-10-3z" fill="#429752"/>
<path transform="translate(817,644)" d="m0 0 5 1-5 7-1 3-1 16-4 8-10 14-4 10-1 20-3-1-2-8 1-13 5-12 10-13 3-6 1-16 4-8z" fill="#F9FBFB"/>
<path transform="translate(461,95)" d="m0 0 5 2 5 5-2 6h6l1-2 2 3-9 8-7 11-2 5-1-2h-4l-1 2 2 1h-3v16h-2l-1-3 1-13 5-12 8-11 1-3h-2l-6-7 2-5z" fill="#1D3B40"/>
<path transform="translate(899,639)" d="m0 0h4v2h2l2 5 2 7-2 4h-2v4l2 2-2 2v1l-10 1-13-9-5-5 1-5h2v-2l7 1 11 8h7l1-1v-6l-7-6 3-2z" fill="#F48F27"/>
<path transform="translate(489,754)" d="m0 0 1 3-3 21h-2l-1 6v8l-2 5h-1l-1 102h-1v-130l2-11h2v2l5-5z" fill="#2E4C4E"/>
<path transform="translate(930,342)" d="m0 0h9l-2 7-3 7-5 8-10-1-12-1v-5h5l6-3 5-6h2l1-4z" fill="#337B4D"/>
<path transform="translate(485,225)" d="m0 0 3 2-4 7-3 3-2 3h-2l-2 5h-2l-2 4-5 6-7-5v-2l-4-2-9-11-3-2 1-2 12 7 9 6 4-6 11-10z" fill="#35854C"/>
<path transform="translate(369,200)" d="m0 0h4l-2 4-16 17-2 5 3-1v2h5l15-16 2-2h3l-1 5-7 8-7 6-5 9-5-2-9-8v-4l-2-1 4-1 7-8z" fill="#E86D22"/>
<path transform="translate(387,127)" d="m0 0h9l8 2 8 5 3 3v4l-4-1-5-4-8-3h-13l-10 5-6 7-3 9-1 12-4-3v-12l3-8 7-9 12-6z" fill="#213D42"/>
<path transform="translate(641,768)" d="m0 0h25v18l-4 1-3-1-1-3v-12h-3v10l-1 4h-5v-15l-2 1-1 14h-6v-16z" fill="#CE4D23"/>
<path transform="translate(699,864)" d="m0 0h7l4 2 3 6-1 8-5 4-7 1-4-2-3-5v-8l4-5z" fill="#36814F"/>
<path transform="translate(576,647)" d="m0 0h163l2 2-160 1-5-1z" fill="#D04E1F"/>
<path transform="translate(372,196)" d="m0 0 9 6 3 4-9 7-7 7-7 8-5-1-3-1 1-5 9-9 7-8 3-5-3-1z" fill="#F49027"/>
<path transform="translate(844,448)" d="m0 0h20l2 3v3h-4l-1 5-1 2-6-2-2 3 5 1 1 2-2 1 1 2-8 5-2-1 3-4-2-1-1 3-3-6v-6l2-2 3-2h-7v-5z" fill="#335453"/>
<path transform="translate(844,292)" d="m0 0h4l-1 7-3 8-5 4-7 2-5-1v-11l1-5z" fill="#F49027"/>
<path transform="translate(509,263)" d="m0 0 5 1-3 1v2l-6 3-1 5 3 2 13 1 4 2h-39l-2-3 1-7 3-3h3l1-3 6 7 2 1 2-5z" fill="#F49B2D"/>
<path transform="translate(824,213)" d="m0 0 3 3 1 16 6-1 2 4-7 6-1 3h-2v8l-2 1-1-6h-2l-3-7-5-6 1-4 8 2v-18z" fill="#F07E23"/>
<path transform="translate(201,454)" d="m0 0h19v10l-3 1-1 4 1 2-6-2h-3l-2-3h-5l-1 4-4-1-1-5 2-1-1-6 2-1v2l1-1z" fill="#2B4C4D"/>
<path transform="translate(158,350)" d="m0 0h43l2 3h-15l-7 3-1 1-1 57h-2l-1-2-1-56-5-3-15-1z" fill="#F7F9F9"/>
<path transform="translate(830,685)" d="m0 0 5 5 1 3 2 1-5 3-3 5-2 5-2 3-3 1-4 4-4-7 1-2h2l-1-7 3-7 7-6z" fill="#1A363C"/>
<path transform="translate(488,121)" d="m0 0 5 1 1 3-11 11-6 11-3 8-1 12-4-4v-14l3-10 8-11z" fill="#E8F1F0"/>
<path transform="translate(447,662)" d="m0 0 5 1 4 5v9l-3 5-3 2-7-1-3-3-1-2v-8l3-5z" fill="#F49429"/>
<path transform="translate(404,225)" d="m0 0 7 2 3 4-5 2-2 4-17 17 1-4h-2l-2 2-3-1 1-5 13-14z" fill="#EF7221"/>
<path transform="translate(772,234)" d="m0 0h6l3 2v2h2l3 3h6l1 1v5h-24l-12-1 2-6 6-3 2 2 1-2h2v-2z" fill="#388450"/>
<path transform="translate(766,348)" d="m0 0h3l-1 8h2l1-6 2-1h7l-1 4-2 3h-2l-1 2-1 4h2l-1 3-5 2-2 6-4 7h-1v-16l-2-2 2-13z" fill="#F49027"/>
<path transform="translate(266,763)" d="m0 0h1l1 17h2l4 16 8 16 11 13 11 11-3 1-6-2-3-3v-2l-3-1-3-3v-2h-2v-2l-3-1-11-23-3-10-1-6z" fill="#8E2C3A"/>
<path transform="translate(440,183)" d="m0 0 5 1 4 4 1 3v9l-4 6-5 3h-9l-1-2h4v-7z" fill="#BA2E3F"/>
<path transform="translate(295,725)" d="m0 0h7l-2 1v2l-9 5h-2l-1 3h-2l-2 4-5 8-4 11-2 14-4 3-1-5 2-16 5-12 6-8 9-8z" fill="#F3F7F7"/>
<path transform="translate(148,442)" d="m0 0h5l7 6v7l-5 7-9-2-5-5v-8l3-1 1-3z" fill="#34834C"/>
<path transform="translate(498,249)" d="m0 0h10l5 3 2 1-3 10-10 4-3 5-4-2-5-6v-7l2 3 4 1 1-3h2l1-3h2l-2-4z" fill="#F04A4A"/>
<path transform="translate(455,765)" d="m0 0 6 2 3 4 1 4v8l-4 6-5 3h-6l-3-2 6-12z" fill="#D15023"/>
<path transform="translate(541,238)" d="m0 0h8v1h-5l4 11 8 2-4 2-4 1-5 6h-2l-2-7-8-5-1 3-5-1-2-1-3-1 5-1-1-3 4 1 6-6z" fill="#F49B2D"/>
<path transform="translate(336,757)" d="m0 0h1l1 5v22l-5 22-8 14-5 7 9-11v3l-7 9-5 5v3l-12 1 5-5 3-4h2l2-4 5-7h2l2-8 8-18 1-8z" fill="#B42E3B"/>
<path transform="translate(296,708)" d="m0 0 4 1 3 2 2 4v6l-10 2-8 4-3 2-1-4h2l-1-6-8-1v-1l8-1-2-2 6-3v-2z" fill="#F3982C"/>
<path transform="translate(657,836)" d="m0 0 5 1 1 2-6 17-5 8-7 1-1-1 1-9 8-15z" fill="#F34F49"/>
<path transform="translate(156,599)" d="m0 0 4 1 2 3v9l-4 6-10 10-6 3-5-1-2-2 5-5 4-2 1-3 6-5 5-7 1-5z" fill="#A72F37"/>
<path transform="translate(337,176)" d="m0 0h4l-2 5-10 10v2l4 1-1 6v3l-2 1-3 6-7-6-6-5v-3l7-2 4-5h2l2-5 4-4h2z" fill="#F38B26"/>
<path transform="translate(792,176)" d="m0 0h6l-4 2-1 1 3 3-5-1 4 5v2h-4-1l-1 4-4-1-1 4-3 3-6 2-4-5 1-7 3-3 4-2 7-1 5-5z" fill="#F49C2E"/>
<path transform="translate(400,219)" d="m0 0 8 6-2 1-5-1-8 7-8 8-4 6-3-1-2 2-1-4h-2l1-5 7-7 7-8 4 1h4 3z" fill="#F28A25"/>
<path transform="translate(504,105)" d="m0 0 2 1-2 3h3l5 1 1 2 15 1v1l-19 1-6-2 1 3-10 5-7 2h-4l-2-1-4 3-2-1 9-8 13-8z" fill="#1F3E42"/>
<path transform="translate(800,272)" d="m0 0 6 2 9 7 4 7 3 1 1-2v2l2 1-4 2-1 2h2l-1 3-2 1-3-3-7-2-6-7-3-9z" fill="#F49329"/>
<path transform="translate(560,248)" d="m0 0 13 1 6 5 2 5v6l3 3-1 2-2-2-7 1-4 2v-9l-2-4h-2v-2l-5-1-2-5z" fill="#F4982C"/>
<path transform="translate(836,360)" d="m0 0h26v9h-30l-6-1v-1l7-1 1-3-2-2z" fill="#36804F"/>
<path transform="translate(799,380)" d="m0 0h17v1l18 1v2h2l1 5h-38z" fill="#63AC6C"/>
<path transform="translate(918,439)" d="m0 0 4 1 4 5 1 2v6l-4 6-5 4-7 1-4-1-1-3 4-1 5-10 2-9z" fill="#BB323D"/>
<path transform="translate(255,353)" d="m0 0 2 1 1 6v48h-4l-1-4v-44z" fill="#FBFCFC"/>
<path transform="translate(329,715)" d="m0 0 5 1 5-1 9 4 2 2-5 1v3h-2v2h3l-1 3v-2h-5l1 8-6-1 4 1v2h-4l-1 2-3-5v-5-2l-2-1v-2h2v-3h2v-3l-2-1-2 2z" fill="#ED6F21"/>
<path transform="translate(156,353)" d="m0 0h17v3l-1 2-6 2-14 7-8 2-1 3 1-10 5-7z" fill="#F3494C"/>
<path transform="translate(214,234)" d="m0 0h7l-1 2h-2v2l-3 2-3 15-4 2h-9l1-9 3-7 6-5z" fill="#35854D"/>
<path transform="translate(850,682)" d="m0 0 6 2 6 5 5 8 1 3v12l-4 9-5 6-10 5-6 1-4-3h7l2-1v-2l7-3 3-5 2-6 3-4 2-7-5-10-4-4-8-4z" fill="#16353A"/>
<path transform="translate(401,671)" d="m0 0 4 2 4 5 2 5v13l-5 10-6 7-11 5h-15l-10-5-2-4h5l3 3 6 1v2l8 2 1-2 8-3 6-3 2-3 2-1-1-3 1-2h-2l1-2h5l1-10-1-1-1-8-2-3-2-1z" fill="#A73035"/>
<path transform="translate(800,292)" d="m0 0 9 2 7 6 3 6v2h2l1-4v7l-3 2-11-2-5-6-3-9z" fill="#F4952A"/>
<path transform="translate(593,833)" d="m0 0h7l5 5v8l-5 4h-8l-4-5v-7z" fill="#F28221"/>
<path transform="translate(866,513)" d="m0 0h2l1 7 1 3-1 4h1v26h-1l-1 24-2-1-1-8-1-11-1-21 2-8z" fill="#16363B"/>
<path transform="translate(280,312)" d="m0 0h1l1 16 2 7h3l1-4 1-2h2l2-4 4-2 2-4 6-5 6 1-1 5 3 6-2 1-8-5-23 23z" fill="#16353A"/>
<path transform="translate(831,681)" d="m0 0h6l-1 3h-2v4l-4-2-6 3-5 6-1 7 1 4-4 2 2 1 2 4v2l4-2 1-2 3 1-1 3 3 1-2 4 3-1v2l-4 1-1 4 2 1h-3l-7-8v-5l-2 1-1-3v-12l5-10 8-7z" fill="#203E42"/>
<path transform="translate(281,180)" d="m0 0 4 2 3 5v7l-3 6-6 4h-9l-3-1v-2l5-2 5-7 3-11z" fill="#BA2E3E"/>
<path transform="translate(198,442)" d="m0 0h21l2 2v4l-20 1-2 1v3l2 2-1 4-3-2v5h-3v8h-1v-23z" fill="#1A353C"/>
<path transform="translate(706,130)" d="m0 0 6 1 5 5v8l-3 6-4-1-10-7 1-7z" fill="#F49027"/>
<path transform="translate(588,765)" d="m0 0h77l1 3h-79z" fill="#1B353C"/>
<path transform="translate(842,235)" d="m0 0h5l-2 11-5 7-6 3-7 2-1-4 3-1 2-8 4-6z" fill="#F28524"/>
<path transform="translate(365,328)" d="m0 0h2l-3 9-10 20-2-4-2 1-1-5h-2l3-10 5-5 8-5z" fill="#5FAA65"/>
<path transform="translate(802,235)" d="m0 0 6 1 8 5 4 8 1 1 2-3 2 4-4 6-11-4-6-5z" fill="#F49228"/>
<path transform="translate(737,206)" d="m0 0h16v3l-5 5-8 6-6 3h-13l4-2 15-5 5-5-5 1 1-3-6 1-15 5-12 3 2-3 9-4 7-2 6-2z" fill="#479957"/>
<path transform="translate(903,604)" d="m0 0 7 1 10 8-6 11-9-6-6-5 1-7z" fill="#F4982B"/>
<path transform="translate(709,380)" d="m0 0 2 1-1 2 3 3 5 16 2 9v5l-5-5-10-14v-8z" fill="#5CAA5F"/>
<path transform="translate(306,648)" d="m0 0 7 1 11 8 9 11 4 7-1 2-11-7-7-7-5-6-5-5z" fill="#203C41"/>
<path transform="translate(180,384)" d="m0 0 5 3 9 8 6 4-2 5-3 4-4-1-10-10-1-2z" fill="#F4484E"/>
<path transform="translate(173,324)" d="m0 0 4 1 2 16 1 9h-3l-5-5-20-5 1-4 3-1h7l8 4 1 1z" fill="#3C8554"/>
<path transform="translate(417,730)" d="m0 0 4 2 3 3 1 3v7l-4 8-8 5h-9l-6-4 1-2 5 3h4l11-17v-5l-2-1z" fill="#A93036"/>
<path transform="translate(776,313)" d="m0 0h4l-1 9-2 7-6 2v-2l-4 2-5-1v-6l6-7z" fill="#F4952B"/>
<path transform="translate(477,315)" d="m0 0h3l1 17 5 14 6 12 3 11v15l-5 14-7 10-8 7-3-1 7-6 2-3h2l2-5 5-10 2-6v-16l-6-16-6-12-1-4-1-15-1-1z" fill="#CE5035"/>
<path transform="translate(768,647)" d="m0 0 1 4-6 21-6 11-8 12-9 10-10 9-16 9-6 1 4-3 8-4 11-8 3-3h2l1-3 8-7 6-8 6-12 1-5 4-1-1-4 2-3 2-6 1-8z" fill="#AB3332"/>
<path transform="translate(732,313)" d="m0 0 6 1 8 5 4 4 1 4-1 3h-8l-4 1-7-2-1 4v-5l3-1h3l-4-9z" fill="#F49028"/>
<path transform="translate(485,844)" d="m0 0h1v45l-1 7h-1l-1-6h-3v-42l3 1z" fill="#16353A"/>
<path transform="translate(439,818)" d="m0 0 5 2 2 2 1 6 3 1v2h-2l1 4-1 1h-5v6l-4 2v3l1 5-5-2v-6-3l-3-3 2-1 1-2h2l3-9 2-2-2-1-4 1v-2h2z" fill="#1D3C40"/>
<path transform="translate(561,314)" d="m0 0 5 1-2 9-9 26-1 6-2-4 1-4-4 1 5-17z" fill="#1E3A40"/>
<path transform="translate(801,333)" d="m0 0h35v6h-35z" fill="#FBFCFC"/>
<path transform="translate(620,332)" d="m0 0h36l-1 4-4 2h-30z" fill="#95C1BB"/>
<path transform="translate(308,667)" d="m0 0v3l-3 3 1 4h3v2l-6 4-7 4h-6l-5-3-1 2-4-4-3-1v-3h2v2l11-1 12-6z" fill="#BA2F3E"/>
<path transform="translate(361,163)" d="m0 0h4l6 12 8 7 9 3h9l1 4-1 1h-10l-11-4-8-6-6-10z" fill="#244145"/>
<path transform="translate(481,121)" d="m0 0 3 2-2 4-8 10-3 7-3 9-2-1v-2l-4 1 3-11 6-11 8-7z" fill="#1C383E"/>
<path transform="translate(754,194)" d="m0 0v3l-5 4v2l4 2v1l-16 1-10 2-3 2-6 2-14 6-5 2 2-4 6-4 5-2 9-4 9-3 14-2 8-7z" fill="#E1EDEB"/>
<path transform="translate(511,242)" d="m0 0h10l2 2h-7l-1 2 3 1v2h-3v2h-2l-1 2-4-3h-8l2 2v3l-5 4-1 2-5-1-2 4v-8l2-4h2l1-3 10-2 5-4z" fill="#F08525"/>
<path transform="translate(400,777)" d="m0 0 5 1 1 4 1 22-1 2-6-1-2-3-2 1 1-4 2-7z" fill="#58A859"/>
<path transform="translate(413,359)" d="m0 0h3l1 3 5 2-1 2 1 3-4 3v-2h-2l2 5h-4v-2h-2l-1 4-5-1-2-5 2-7h3l1-4z" fill="#F7F6F1"/>
<path transform="translate(512,398)" d="m0 0 2 3 1 4 2 2h-2v2l7-1 1 1v8l-5 1-4-2-4 3 2 3-4-2-1-3v-9z" fill="#F4982B"/>
<path transform="translate(189,346)" d="m0 0h14l8 4 5 7v5l-4-2v5l-2-3-2-6-12-2v-1l6-1-1-1h-22l1-2z" fill="#F38525"/>
<path transform="translate(829,772)" d="m0 0 10 2 2 10-9 5h-3l-7-7 4-4 1-5z" fill="#EE5940"/>
<path transform="translate(508,647)" d="m0 0h22l-1 2v7h-25l1-4 2-2 5-1z" fill="#5EAB61"/>
<path transform="translate(924,579)" d="m0 0h6l4 4v7l-2 3-4 2-5-1-3-2-1-8z" fill="#F28223"/>
<path transform="translate(586,95)" d="m0 0 6 1 5 5 1 4-1 7-4 6-9 1-7-3-1-4 6 3 4-2 3-4 1-5h2l-1-6-5-2z" fill="#3B8752"/>
<path transform="translate(878,335)" d="m0 0 5 2 4 3-1 1 2 2 3 9 3 5v2l-7 1-3-3-4-9h-1l-1-5z" fill="#5BAA5D"/>
<path transform="translate(378,310)" d="m0 0h6l5 4v7l-5 5-6-1-3-3-1-7z" fill="#A83035"/>
<path transform="translate(404,777)" d="m0 0h7l1 1 1 18-5 10-4 2-5-2-4-2 4-3 1 4 6 1-1-27z" fill="#36814E"/>
<path transform="translate(513,396)" d="m0 0h34v1l-20 1-1 8-2 10h-1l-1-7h-7l-1-4-1-5z" fill="#F49027"/>
<path transform="translate(494,714)" d="m0 0 2 3v2h-2l1 9-1 10-3 15-4 3-3-8h3l1-17h2v-6h1l1-9h2zm-1 14m-8 28 2 1-3 3z" fill="#16353A"/>
<path transform="translate(393,147)" d="m0 0 9 1 3 5 1 9-2 3-6 1v-2l-2-1-3-7z" fill="#F39A2D"/>
<path transform="translate(769,767)" d="m0 0h10l4 2-4 1 2 2 7 1v4h-4v3l4 1-1 6h-2l1 3v1l2 1-3 4-1 5h-2l-1 9-4 6-1-2 4-9 2-10v-11l-4-9-5-5z" fill="#B92F3E"/>
<path transform="translate(799,179)" d="m0 0h4l2 4v7l-2 7-5 3h-2l-2 5-1 1h-5l2-3h3l-1-7 2-5 3 1 1-4 1-2h-2l1-2 1-3z" fill="#E66A24"/>
<path transform="translate(123,408)" d="m0 0h8l3 3v8l-4 3h-7l-3-3-1-6z" fill="#F38523"/>
<path transform="translate(152,407)" d="m0 0 3 1 4 4v3l5 2v-2h-2l-1-3 4 2 15 4-1 2 11 1 5-2-4 4h-25l-6-4-6-7z" fill="#F49027"/>
<path transform="translate(341,179)" d="m0 0 2 3v2l3 1 1-4 3 1h-2l-1 4-14 14h-2l1-6-4-1 2-4 8-8z" fill="#F49B2D"/>
<path transform="translate(384,636)" d="m0 0 3 1 1 3-3 1-2 12v17l-5 1-1-9v-14l1-4h2l1-4h2z" fill="#357B4F"/>
<path transform="translate(179,396)" d="m0 0 4 2 10 10-1 4-5 3h-7l-1-7z" fill="#B82F3C"/>
<path transform="translate(235,227)" d="m0 0h5v3l-10 6-6 9-3 13h-3l-1-7 2-8 4-7 9-8z" fill="#FBFCFC"/>
<path transform="translate(720,777)" d="m0 0 5 2-2 4-7 8-4 9h-5l1-10 6-9z" fill="#F6F9F8"/>
<path transform="translate(888,622)" d="m0 0 7 2 6 5-2 1-2 5-3 3-5-2-3-2v-2h-2v-6z" fill="#F38D26"/>
<path transform="translate(503,648)" d="m0 0h10l-1 2-6 2-2 4h8v1l-8 1-1 2h7l3-1 4 1h22v2h-43l1-9z" fill="#479C53"/>
<path transform="translate(175,477)" d="m0 0 15 1v6l-19 1-1 4-4-1-1-1 1-7 3-2z" fill="#1A353C"/>
<path transform="translate(422,239)" d="m0 0 4 2 1 3-8 7-3 1-2 4-9 10h-3l1-4 4-7 4-5 6-5z" fill="#902F39"/>
<path transform="translate(432,97)" d="m0 0 5 1 5 5v10l-3 6-7 6-3-2h2l1-4 1-6h2v-13z" fill="#A62F36"/>
<path transform="translate(824,727)" d="m0 0 8 4 5 1h15l3 2-7 2v-2l-4 4h1v6l-2-2-3 1v-2l1-1h-3v3l-3 3h-2v-2l-4-1v-2h2l1-2 4-1-2-2 1-1-10-3z" fill="#3E944F"/>
<path transform="translate(757,736)" d="m0 0 1 4 2 5-3 11h-2v8l-2 3-2-5-2-3 1-11 4-9z" fill="#5BA860"/>
<path transform="translate(752,689)" d="m0 0h2l-1 8-4 3-2 4-5 3h-2l-1 4-6 5-7 2-5 3h-2v2l-13 5 1-3 16-8 9-6 10-9 7-8z" fill="#ECF3F2"/>
<path transform="translate(877,293)" d="m0 0 4 5 4 2-2 4h-2l-1 6-8-1h-3v-7l-1-4 7-3z" fill="#1E393F"/>
<path transform="translate(608,233)" d="m0 0 7 6 5 5-2 5-4 2-8-7-3-3 2-4z" fill="#1F3C41"/>
<path transform="translate(544,239)" d="m0 0h8l5 3 4 4-2 5-9 1-4-4z" fill="#F17320"/>
<path transform="translate(699,146)" d="m0 0 4 1 9 7-2 8-3 6h-2l-6-16z" fill="#F49228"/>
<path transform="translate(263,290)" d="m0 0h1l-1 54-6-5 4-1-1-2v-29l1-6h-2l2-5z" fill="#16343A"/>
<path transform="translate(750,230)" d="m0 0h8l2 5-6 7h-2v2l-5-1v-3l-5-1 2-4z" fill="#F4484E"/>
<path transform="translate(154,346)" d="m0 0h13l9 3 1 2h-19l12 1v1l-14 1-7 1-2-2-5 3 2-4 5-4z" fill="#F49529"/>
<path transform="translate(246,803)" d="m0 0h3 3l1 1 2 1 1 3 4 1v-2l5 1v2l10 2 1 2 1-3 1 4h-11l-16-4-8-4z" fill="#F27320"/>
<path transform="translate(485,777)" d="m0 0h1v50l-3 1v11h-1v-19l2-4h-2l-1-17-1-5 2 1 1-3v-10z" fill="#16353A"/>
<path transform="translate(512,243)" d="m0 0h8l4 1 1 4-2 1 3 1-4 4-6 5 2 7h-7l2-2-1-5 2-6-1-2h2v-2h3v-2h-7l4-2z" fill="#F49B2D"/>
<path transform="translate(706,232)" d="m0 0h10l1 2h-4l2 1v2l-2 1 1 3-2 3h-7l-3 1-3-1-1-4h2l2-5z" fill="#F49C2E"/>
<path transform="translate(312,708)" d="m0 0h9l-4 1 2 9h2v6l-11-3-2-2v-8z" fill="#F48F27"/>
<path transform="translate(756,324)" d="m0 0 4 4 2 7-1 7-2 3-4-2-2-3v-4l-2-1 1-6h2z" fill="#D45523"/>
<path transform="translate(630,768)" d="m0 0h6l2 1v17h-8z" fill="#D25223"/>
<path transform="translate(538,168)" d="m0 0h7l3 3 1 3h-10l-6 6-1 9-4-3v-9l6-7z" fill="#95C1BB"/>
<path transform="translate(844,448)" d="m0 0h20l2 3v3h-24v-5z" fill="#ECF3F2"/>
<path transform="translate(433,292)" d="m0 0 3 1-4 2 3 1v-2h2l2 5-5 4-2 2h-2l-3 4-3-1v-7l-4 3 2-4 7-6z" fill="#F49B2D"/>
<path transform="translate(401,224)" d="m0 0h3l-1 4-12 12-7 8h-4l2-5 9-10 8-8z" fill="#592F3A"/>
<path transform="translate(299,708)" d="m0 0h13l-3 3v8l7 3v2l2 1-23-1v-2l3-1h7l-2-10-4-2z" fill="#50323A"/>
<path transform="translate(443,643)" d="m0 0 5 1v2l-10 3-7 6-3 7-1 8v7h-2l-2-9 3-12 6-8 7-4z" fill="#274648"/>
<path transform="translate(200,261)" d="m0 0h6l-1 3-7 4h-2l-1 3h-2l-3 10-1 5-4-1v-7l5-9 8-7z" fill="#FBFCFC"/>
<path transform="translate(648,236)" d="m0 0h8v1l-9 2-5 3-4 6 1 6 3-1 1 1 1-4-2-1 1-3 5-1-3 10-6 4h-2l-1 3-5-1-1-4 5-4 2-9 8-7z" fill="#F49429"/>
<path transform="translate(648,205)" d="m0 0h4l7 6 6 3-1 4 1 3h11v1h-23l-9-2v-1h16l-5-5-7-8z" fill="#C13A38"/>
<path transform="translate(736,342)" d="m0 0 3 2 5 1-1 9-2 1v-2l-4 3h-5l-2-7v-4h6z" fill="#F17E22"/>
<path transform="translate(842,253)" d="m0 0h5l1 3-2 4h-4v2l-8 7-4-1 3-9 6-5z" fill="#F4992C"/>
<path transform="translate(662,699)" d="m0 0 4 2 3 7-1 6-5 2-4-2-1-1v-6z" fill="#18323A"/>
<path transform="translate(830,685)" d="m0 0 3 4h-2v2h-2l-2 4-4 9-5-1-1-4 3-7 7-6z" fill="#EDF4F3"/>
<path transform="translate(926,621)" d="m0 0h3v2h2l3 7v10l-3 5-4 1-3-3v-13l2 2 2 6 2-4-1-5z" fill="#D35425"/>
<path transform="translate(739,840)" d="m0 0 3 1-6 3-6 2h-2v2l8 1v-3l6 2v2l-10 3-14-6-4-2 1-2h13z" fill="#B82D3E"/>
<path transform="translate(279,815)" d="m0 0 2 1v2l4-2 12 13 7 7-3 1-6-2-3-3v-2l-3-1-3-3v-2h-2v-2l-3-1z" fill="#A32C3A"/>
<path transform="translate(899,630)" d="m0 0 5 1 8 6 1 2-5 3-3-2h-3l-1 2-7-3 2-4z" fill="#F38423"/>
<path transform="translate(332,333)" d="m0 0 2 1 8 17-4 2h-6l-1-1v-18z" fill="#5EAB62"/>
<path transform="translate(338,786)" d="m0 0 2 3-1 9-5 13-3 1-2 5-8 10-2 1 2-4 10-16 4-14 2-6z" fill="#8C2C39"/>
<path transform="translate(369,200)" d="m0 0h4l-2 4-16 17-2 3-4-1 2-5z" fill="#533237"/>
<path transform="translate(596,716)" d="m0 0 9 5v2l6 2-1 4v3 1h-5l-8-5v-2l-3-1 1-2 4 2-1-1 2-2-4-4z" fill="#459954"/>
<path transform="translate(729,230)" d="m0 0h7l-1 6h-2v8h-2l-1-2-5-1v2l-5 2v-5l6-7z" fill="#F24D4A"/>
<path transform="translate(417,169)" d="m0 0h3l-1 6-8 9-10 5-4-1v-3l12-6 6-7z" fill="#1F3C41"/>
<path transform="translate(155,608)" d="m0 0 2 3-3 7-5 5-7 6h-7l6-7 3-1 1-3 6-5z" fill="#B92D3E"/>
<path transform="translate(409,233)" d="m0 0h3v5l-2 2h-3l-1 4-12 12-3 1v-4l9-10 8-8z" fill="#5C2F3A"/>
<path transform="translate(627,101)" d="m0 0h4l3 5-1 9-5 6h-6l2-5h2l1-14z" fill="#D25223"/>
<path transform="translate(208,358)" d="m0 0 3 4v3h2l1 13-3 13-5 5-4 5-3 5-6 7-2-1 2-4h2l2-4 6-8 3-3 4-9 1-10-2-10z" fill="#E1621F"/>
<path transform="translate(336,167)" d="m0 0 5 2 11 10 1 5h-2l-1 3v-3h-2l-1-2-1 3-4-1-1-4-2 1 2-5 1-3-4-2z" fill="#F49028"/>
<path transform="translate(151,657)" d="m0 0h4v6l1 4-7 6-3-1-1-7 3-6z" fill="#FBFCFC"/>
<path transform="translate(271,800)" d="m0 0 2 2 3 7v5l-2-1-3-1-7-1 1-3h-3v-3h-2l2-4 5 2z" fill="#F27B20"/>
<path transform="translate(210,717)" d="m0 0h8l3 3 1 3v11l-5 9-7 7-6 2 1-3 5-3h2l2-4 3-5-2-1 4-2-1-12-2-2-6-2z" fill="#A42F36"/>
<path transform="translate(196,443)" d="m0 0h4l1 4-2 3v3l2 2-1 4-3-2v5h-3v8h-1v-23z" fill="#1A363C"/>
<path transform="translate(174,399)" d="m0 0 1 4 1 12h-8l-5-5z" fill="#BA2E3F"/>
<path transform="translate(807,328)" d="m0 0h30v12h-1v-8h-15l-14-1z" fill="#439950"/>
<path transform="translate(498,249)" d="m0 0h10l5 3 2 1-3 10-10 4-3 5-4-2-4-4 1-2 4 3 4-2 4-1v-2l6-1-3-10h-7z" fill="#CF4C22"/>
<path transform="translate(391,217)" d="m0 0 1 3-5 5-13 14-3 3-1-4 4-6 14-14z" fill="#9B2B39"/>
<path transform="translate(359,192)" d="m0 0h3l-2 5-13 13-5 6h-1l1-7 9-10z" fill="#572F39"/>
<path transform="translate(321,858)" d="m0 0 6 2 1 6-3 4-7-1-2-2v-6z" fill="#F49229"/>
<path transform="translate(232,448)" d="m0 0h15l2 6h-20v-5z" fill="#E1EDEB"/>
<path transform="translate(845,258)" d="m0 0h1l-1 9-7 6-9 3-1-2h3l1-4 4-4h2l2-4h2v-2z" fill="#F38623"/>
<path transform="translate(861,679)" d="m0 0 2 2 1 4h2l3 9v3l2 2v3l-1 10h-1l-2-12-4-8-5-6-2-2 2-2z" fill="#4A9A57"/>
<path transform="translate(806,249)" d="m0 0 6 4 7 2 2 9v6l-2-1-5-10-2-1v2h-3l1-3-7-3v7h-1l-1-8 2-1 4 1z" fill="#F49D2E"/>
<path transform="translate(681,157)" d="m0 0 3 1 4 7v7l-3 4h-6l1-9 1-8z" fill="#BA2E3F"/>
<path transform="translate(316,723)" d="m0 0 5 1 6 4 7 10 3 8-1 2-3-1-6-12-5-5-4-3-3-2z" fill="#902C3A"/>
<path transform="translate(778,345)" d="m0 0 5 1-1 9-2 5-5 2h-2l-1-5 5-1 2-4 1-3-9 1 1 3-2 3h-2v-5h2l1-3h5v-2z" fill="#F38222"/>
<path transform="translate(756,346)" d="m0 0 5 1v13h-2l-1 3-3-1-2-5v-9z" fill="#D04D20"/>
<path transform="translate(337,176)" d="m0 0h4l-2 5-19 19-1-3 6-8h2l2-5 4-4h2z" fill="#6B3138"/>
<path transform="translate(482,97)" d="m0 0h2l1 4 3 1-5 4-3 2-4-1-5 2-2-1 1-4 9-5z" fill="#19363C"/>
<path transform="translate(333,352)" d="m0 0 9 2 9 5v2l-5-1-5-3-9-1-4 2-6 8-2 5-2-3 1-6 5-5 8-4z" fill="#CF4F32"/>
<path transform="translate(173,324)" d="m0 0 4 1 2 16 1 9h-3l-3-4-1-7z" fill="#243D41"/>
<path transform="translate(512,114)" d="m0 0h19l-4 2-13 4-10 5 1-4-3-3z" fill="#91BDB7"/>
<path transform="translate(378,209)" d="m0 0h3l-1 5-7 8-8 7-4 2 2-6 12-13z" fill="#642F39"/>
<path transform="translate(664,242)" d="m0 0 3 3 2 9 5 3-1 5-4 1-7-6-3-1 2-4 3 1 1-7-3-3z" fill="#F4952A"/>
<path transform="translate(734,156)" d="m0 0h4l1 5h2v7l-4 1-6-4-2-5z" fill="#D45520"/>
<path transform="translate(532,270)" d="m0 0h7l2 5v5h-13l2-7z" fill="#F37F20"/>
<path transform="translate(862,454)" d="m0 0 6 1-1 3h-2v4l2 2v4l-5 1-2-3h-2l-3-3-3-1 2-4 6 3v-4h2z" fill="#29484A"/>
<path transform="translate(315,727)" d="m0 0h4l7 5-1 3v2h-2v2l-4 1-2 1-2-1z" fill="#F27D20"/>
<path transform="translate(635,385)" d="m0 0h35v3h-34z" fill="#E5EFEE"/>
<path transform="translate(461,95)" d="m0 0 5 2 5 5-2 4-2 2-1-3h-2l-1 3-6-7 2-5z" fill="#1E393F"/>
<path transform="translate(603,401)" d="m0 0h34v3h-34z" fill="#D9E8E6"/>
<path transform="translate(326,360)" d="m0 0h4l1 7-6 8-4-2v-7z" fill="#FAFBFB"/>
<path transform="translate(384,233)" d="m0 0h2l1 5-6 8-3-1-2 2-1-4h-2l1-5 4-1 3-3z" fill="#F37F1F"/>
<path transform="translate(749,192)" d="m0 0h13l-1 4-4 8-5 1-4-2 2-4 5-5-6-1z" fill="#4A9B5C"/>
<path transform="translate(645,731)" d="m0 0 11 1 23 1v2l-19 1h-14l-2 1h-6l4-2-2-2 5-1z" fill="#E3EEED"/>
<path transform="translate(630,694)" d="m0 0 3 1v9l-3 4h-5l-2-3 1-5 5-5z" fill="#19323A"/>
<path transform="translate(799,410)" d="m0 0h37v13h-35v-3l10 1 24 1v-9h-2v-2l-34 1z" fill="#3F974F"/>
<path transform="translate(616,200)" d="m0 0 5 2 9 4 11 3 3 3h-9l-10-3-8-5z" fill="#F9FBFB"/>
<path transform="translate(696,694)" d="m0 0 5 3 3 3v7l-1 1h-6l-2-2v-11z" fill="#19323A"/>
<path transform="translate(221,411)" d="m0 0h7l2 3-1 6-3 2-5-1-2-2v-6z" fill="#F49128"/>
<path transform="translate(839,236)" d="m0 0h3l-1 10-3 3-7 2-1-4 5-8z" fill="#F49228"/>
<path transform="translate(603,393)" d="m0 0h32l1 3h-33z" fill="#F8FAFA"/>
<path transform="translate(734,780)" d="m0 0h5l1 2-9 5-8 9-4 7h-2l1-4 5-10 8-7z" fill="#FBFCFC"/>
<path transform="translate(904,606)" d="m0 0 4 1 4 2v2l4 1-1 2-3 1-1 4-5-3-4-4 1-5z" fill="#F49D2E"/>
<path transform="translate(369,821)" d="m0 0 2 1-6 7-4 10-1 9h-1v-5h-2l-1 2-2-2 1-5 7-10 5-5z" fill="#224245"/>
<path transform="translate(606,376)" d="m0 0 29 1v3h-31l-1-3z" fill="#E5EFEE"/>
<path transform="translate(599,326)" d="m0 0 4 5 2-1v2l2 1-5 4-1 2h-8l-1-7 5-3z" fill="#16353A"/>
<path transform="translate(440,183)" d="m0 0 5 1 4 4 1 3v9l-4 6-5 3h-9l-1-2 10-1 4-5h2v-9l-5-7z" fill="#A93036"/>
<path transform="translate(289,656)" d="m0 0h4v4h-3l-2 5-5 8-3-1 1-8 6-7z" fill="#F6F9F9"/>
<path transform="translate(573,737)" d="m0 0h5l2 2v6l-3 3-6-1-1-1v-7z" fill="#F49229"/>
<path transform="translate(675,668)" d="m0 0 4 1 4 5 1 4-3 4-5-1-2-4z" fill="#19323A"/>
<path transform="translate(127,576)" d="m0 0 5 1 2 2v5l-3 3h-5l-3-4 1-5z" fill="#F49329"/>
<path transform="translate(860,379)" d="m0 0h2v10l-2-2v-6l-3 1-20-1v5l-1-2-4-1-30-1v-1l22-1z" fill="#439453"/>
<path transform="translate(146,352)" d="m0 0 4 2-5 8-1 6h-2l-2 13h-1v-18l4-8 3-1z" fill="#F17C1F"/>
<path transform="translate(383,288)" d="m0 0 6 1 2 3-1 4-4 3-4-1-2-2v-6z" fill="#F28424"/>
<path transform="translate(494,698)" d="m0 0 2 1v2l3-1v5l1 3-4 20h-2v-9h2l-2-6 2-7v-2l-2-1-1 3-1-2z" fill="#234044"/>
<path transform="translate(322,660)" d="m0 0h1v5l4 1v-1l-2-4 4 2 7 10 1 4-8-4-9-8z" fill="#254246"/>
<path transform="translate(348,184)" d="m0 0h2l-1 5-15 15-3 1 2-6z" fill="#6B2E39"/>
<path transform="translate(281,180)" d="m0 0 4 2 3 5v7l-3 6-6 4h-9v-2h7l5-3 2-4-1-8z" fill="#AA3434"/>
<path transform="translate(936,468)" d="m0 0h7l1 1v8l-1 1h-7l-2-3 1-6z" fill="#F49128"/>
<path transform="translate(909,366)" d="m0 0h3l1 6h2v2l2 1h-2v2h-2v2l4 1h-2v2h2v4h-4l1 2h-2v2l2 1-2 1v3l-4 2 1-5 2-8v-11z" fill="#BA2E3F"/>
<path transform="translate(180,365)" d="m0 0 5 2 18 10 8 5v2l-5-1-11-6-10-7-5-3z" fill="#BA2E3F"/>
<path transform="translate(925,343)" d="m0 0 3 1-2 1-1 3h-2l-2 4-4 4h-4l-1 2h-2l2-6 8-7z" fill="#50A15B"/>
<path transform="translate(641,768)" d="m0 0 8 1-2 2-1 14h-6v-16z" fill="#D14F1F"/>
<path transform="translate(343,644)" d="m0 0 5 2 1 5-3 4h-5l-3-4 1-5z" fill="#F49028"/>
<path transform="translate(741,365)" d="m0 0 8 1 3 3 1 13-5-5z" fill="#FBFCFC"/>
<path transform="translate(745,347)" d="m0 0 7 3 2 14-4-2-5-6-1-7z" fill="#FBFCFC"/>
<path transform="translate(456,122)" d="m0 0 6 5-2 6-1-2h-4l-1 2 2 1h-3v16h-2l-1-3 1-13z" fill="#234245"/>
<path transform="translate(652,668)" d="m0 0h2l1 3v8l-2 2h-6l-1-4 4-8z" fill="#1C3139"/>
<path transform="translate(310,172)" d="m0 0 5 1 10 9v3l2 1-6-1-11-9z" fill="#FBFCFC"/>
<path transform="translate(123,468)" d="m0 0 7 1 1 7-6 3-4-3v-6z" fill="#F48B26"/>
<path transform="translate(782,328)" d="m0 0h1v8l-2 6-4 3-3-1h2l-1-7 2-7 4-1z" fill="#F37F1F"/>
<path transform="translate(506,316)" d="m0 0 2 3 4 13-4 1-1 2-5-14 1-3h2z" fill="#1F3C41"/>
<path transform="translate(778,313)" d="m0 0h2l-1 9-1 3-7 3-3-1h2v-2l2-2-1-4 4-4z" fill="#F07A21"/>
<path transform="translate(725,682)" d="m0 0 7 3 4 3-1 4-5 2-4-4-2-7z" fill="#19323A"/>
<path transform="translate(624,663)" d="m0 0 3 1v6l-3 5-6-1-1-5z" fill="#19323A"/>
<path transform="translate(689,762)" d="m0 0 6 2v6l-7 3-3-3v-5z" fill="#F48C27"/>
<path transform="translate(884,367)" d="m0 0 4 1-1 7-2 6-4-1-1-1v-8z" fill="#F8FAFA"/>
<path transform="translate(278,402)" d="m0 0 1 2h3v2l3 1-6-1v2h2l-1 3 2 4 2 2-1 2 6 1v3h-11l-1-5v-9z" fill="#3E964E"/>
<path transform="translate(467,138)" d="m0 0 2 1 3-1-1 6-3 9-2-1v-2l-4 1 3-11z" fill="#1E3A40"/>
<path transform="translate(495,690)" d="m0 0 5 1 3-1-2 13-1 3-2-1v-4h-2l-2-3z" fill="#203F42"/>
<path transform="translate(601,380)" d="m0 0h18l1 5-21-1v-3z" fill="#18333A"/>
<path transform="translate(431,248)" d="m0 0 2 1 1 8-3 10h-2l-2 4-8 5-5 1-4-2 11-3 4-1 1-4 4-4z" fill="#C94A36"/>
<path transform="translate(371,222)" d="m0 0v3l-4 5 3 3 2-2 3 1-3 4-9 1 2 2 3 5-4-2-4-5 6-10z" fill="#F07922"/>
<path transform="translate(618,205)" d="m0 0 13 5 4 2-4 2-2 2-10-5-5-5z" fill="#EE792B"/>
<path transform="translate(612,102)" d="m0 0 1 3 3-2h3v8l-5 2-3 4-1-2v-10z" fill="#F6B567"/>
<path transform="translate(704,663)" d="m0 0 6 2 3 3 1 4-2 2h-6l-2-2-1-6z" fill="#19323A"/>
<path transform="translate(477,315)" d="m0 0h3l1 17 5 14 4 7-1 2-4-4-5-11-1-4-1-15-1-1z" fill="#D05333"/>
<path transform="translate(415,246)" d="m0 0h2l-2 5-5 5h-2v3l7-7v3l-7 7-3 4h-3l1-4 4-7 4-5z" fill="#9C2C3A"/>
<path transform="translate(732,207)" d="m0 0h4l-1 3-15 5-12 3 2-3 9-4 7-2z" fill="#377B4F"/>
<path transform="translate(454,909)" d="m0 0h6l2 3-1 5-3 2-6-2v-6z" fill="#428B5A"/>
<path transform="translate(800,328)" d="m0 0h7v3h14l15 1v1h-35z" fill="#59A959"/>
<path transform="translate(803,237)" d="m0 0h1l2 6 4-1 6 5v3h-2v2l-4-1-6-3z" fill="#F49D2E"/>
<path transform="translate(487,734)" d="m0 0h1v15h-3l2 7h-2l-2 4v-2h-2l4-21z" fill="#1D383E"/>
<path transform="translate(632,727)" d="m0 0 8 1 12 2 26 1v2h-22l-14-2-10-3z" fill="#C7422B"/>
<path transform="translate(316,195)" d="m0 0 4 2 1 4 5 1 1 3h2l-2 5-7-6-6-5v-3z" fill="#F08224"/>
<path transform="translate(790,194)" d="m0 0 3 1v8l-4 2 1 2h-6l-3-3 3-1 2-7h2v3h2l-1-4z" fill="#F17720"/>
<path transform="translate(329,816)" d="m0 0v3l-7 9-5 5v3l-12 1 4-3 4-1 2-4 4-3h2z" fill="#AA2C3B"/>
<path transform="translate(419,738)" d="m0 0 2 1v6l-3 6h-2l-3 3-4-1z" fill="#B92D3E"/>
<path transform="translate(216,457)" d="m0 0h3l1 7-3 1-1 4 1 2-6-2-1-4 4-5v-2z" fill="#224144"/>
<path transform="translate(429,418)" d="m0 0 13 2h11l5-1h7l-2 2-10 2h-13l-11-3z" fill="#D35A33"/>
<path transform="translate(452,268)" d="m0 0h2l-5 10-1 16h-3v-14l4-10z" fill="#203C41"/>
<path transform="translate(725,232)" d="m0 0 2 1-6 8-1 4h-4l-1-5h-2l-1-4 3 1v-2l-3-1 3-1 3 1 3 3z" fill="#F28D28"/>
<path transform="translate(292,723)" d="m0 0 6 1-1 2-7 2-10 9-2 3h-3l2-5 5-5z" fill="#723636"/>
<path transform="translate(189,346)" d="m0 0h14l5 2-3 1-4-1h-9l10 1 3 2v3h-9v-1l6-1-1-1h-22l1-2z" fill="#F2992E"/>
<path transform="translate(269,719)" d="m0 0h3v2l-15 8-8 8h-2l2-5 3-1 1-3 7-5z" fill="#F49329"/>
<path transform="translate(768,647)" d="m0 0 1 4-6 21-3 6h-3l1-7 4-1-1-4 2-3 2-6 1-8z" fill="#A52F35"/>
<path transform="translate(385,412)" d="m0 0h6l3 4-2 4-4 2-4-3z" fill="#39894F"/>
<path transform="translate(603,385)" d="m0 0h24v3h-24z" fill="#F3F7F7"/>
<path transform="translate(172,355)" d="m0 0 4 1v7l-1-4-10 3-12 6-9 3v-2l9-4 17-8 2-1z" fill="#BA2F3E"/>
<path transform="translate(880,345)" d="m0 0 2 4 3 10h9l-1-4 5 4 6-1 2 1v2h-21l-3-4-2-5z" fill="#459057"/>
<path transform="translate(766,348)" d="m0 0h3l-1 6-5 8h-3l2-13z" fill="#FAFAF9"/>
<path transform="translate(706,232)" d="m0 0h10l1 2h-4l2 1v2l-8 1-5 3-4-1h2l2-5z" fill="#F4992C"/>
<path transform="translate(823,215)" d="m0 0 4 1v18l-4-1z" fill="#F17B23"/>
<path transform="translate(603,683)" d="m0 0 4 1-4 9h-6l-1-5 4-4z" fill="#19323A"/>
<path transform="translate(173,632)" d="m0 0h6l2 2-1 5-3 2-4-1-2-2 1-5z" fill="#95C1BB"/>
<path transform="translate(888,622)" d="m0 0 2 1-1 5h2v-2h2v3l-4 1 2 5 3 1-2 2-6-4v-2h-2v-6z" fill="#F4982C"/>
<path transform="translate(876,276)" d="m0 0 4 2 1 5-2 4-6-1v-2l-2-1 2-5z" fill="#95C1BB"/>
<path transform="translate(825,235)" d="m0 0h3 3v2h-2l1 3-2 4h-2v8l-2 1-1-3-1-5 2-2-3-1 1-3z" fill="#EA6C21"/>
<path transform="translate(734,174)" d="m0 0 3 1-2 4-24 1 3-2 13-3h6z" fill="#B43634"/>
<path transform="translate(744,761)" d="m0 0 8 1 2 7-2 5-4-2-3-9z" fill="#3B605A"/>
<path transform="translate(916,650)" d="m0 0h2v7l-4 6-5 4-2 1h-9v-2l10-1v-2l4-3h2z" fill="#F38225"/>
<path transform="translate(510,332)" d="m0 0h2l4 11-1 3-4 1-3-9v-5z" fill="#1E3A3F"/>
<path transform="translate(800,292)" d="m0 0 9 2-2 2 6 4-3 1-1 3-5-2v-6h-2l-1 4z" fill="#F49C2D"/>
<path transform="translate(266,763)" d="m0 0h1l1 17h2l2 13-1 5-2-3-3-13z" fill="#962C39"/>
<path transform="translate(695,692)" d="m0 0 6 3 5 5 1 6-4 4h-6l-3-3v-11h1l1 10 1 1h6v-7l-6-5-3-1z" fill="#A52B3A"/>
<path transform="translate(395,690)" d="m0 0h3l2 5-2 4-6 2-1 2-2-5h2l2-7z" fill="#A02B39"/>
<path transform="translate(278,270)" d="m0 0h5l2 2v5l-2 2h-5l-2-2v-5z" fill="#32824A"/>
<path transform="translate(630,692)" d="m0 0 4 1v14l-3 3h-6l-3-4 1-7 4-5zm0 2-5 5-2 3 1 5 1 1h5l3-4v-9z" fill="#A62B3A"/>
<path transform="translate(846,293)" d="m0 0h2l-1 6-3 8-4 1-2-2 1-4h3l-1-5 2-2 2 1z" fill="#F37E1F"/>
<path transform="translate(608,233)" d="m0 0 7 6-1 3-3 1-3-1-3 1-2-4z" fill="#25343B"/>
<path transform="translate(572,201)" d="m0 0 4 2 8 8-2 4-1 4-4-2-3-4 7 1-1-3-6-2-1-5z" fill="#17333A"/>
<path transform="translate(401,671)" d="m0 0 4 2 4 5 2 5v11h-2l-2-7-1-8-2-3-2-1z" fill="#A32D37"/>
<path transform="translate(739,659)" d="m0 0 6 1 4 4-1 4-3 1-5-3-2-5z" fill="#19323A"/>
<path transform="translate(394,216)" d="m0 0 5 1 1 4-1 3-6 2-4-4h2l1-5z" fill="#EF7A20"/>
<path transform="translate(436,100)" d="m0 0 2 2v11l-3 8-1 3-3 1-2-2h2l1-4 1-6h2v-12z" fill="#BA2F3D"/>
<path transform="translate(324,720)" d="m0 0h4l3 5h-2v2l5 2-4 4-5-6-4-2 2-4z" fill="#F27D21"/>
<path transform="translate(919,614)" d="m0 0 4 1 1 2-3 3-1 8-4-2-2-4z" fill="#F28223"/>
<path transform="translate(766,365)" d="m0 0h4l-2 6-5 9h-1v-14z" fill="#FBFCFC"/>
<path transform="translate(431,297)" d="m0 0 4 1-2 4-6 7-3-1v-5z" fill="#FBFCFC"/>
<path transform="translate(372,791)" d="m0 0 1 4-7 14-9 9h-2l1-3h2l2-4 7-9 4-10z" fill="#C54035"/>
<path transform="translate(314,709)" d="m0 0 2 2h-3v6l5 4-6 1-4-3v-8z" fill="#F3972C"/>
<path transform="translate(732,780)" d="m0 0 2 1-9 7-4 4-4-1-2 5-2 2 1-5 4-6 6-5-1 4z" fill="#F18527"/>
<path transform="translate(494,714)" d="m0 0 2 3v2h-2l1 9v4l-4 3-3 1v-5h2v-6h1l1-9h2z" fill="#16343A"/>
<path transform="translate(824,711)" d="m0 0 3 1-1 3 3 1-2 4 3-1v2l-4 1v2l-4-1v-3l-2 1 1-4-2-1z" fill="#305251"/>
<path transform="translate(361,675)" d="m0 0 4 1-3 11-3 2-2-2 1-7z" fill="#F9FBFA"/>
<path transform="translate(381,649)" d="m0 0h2v21l-5 1-1-7 3-4v-9z" fill="#476D65"/>
<path transform="translate(404,130)" d="m0 0 6 2 5 5v4l-4-1-5-4-5-5z" fill="#1C393E"/>
<path transform="translate(206,454)" d="m0 0h13l-2 2-3 1-2 3-3 1-2 2h-2v-3l-2 1 2-5z" fill="#203D41"/>
<path transform="translate(180,381)" d="m0 0 4 2 8 7 9 7v2l-5-2-10-8-6-5z" fill="#B92D3E"/>
<path transform="translate(512,243)" d="m0 0h8l4 1 1 4-10 5-2-2h2v-2h3v-2h-7l4-2z" fill="#EF7220"/>
<path transform="translate(372,754)" d="m0 0h2l2 7v22l-2 1v-14l-2-11z" fill="#BB323C"/>
<path transform="translate(336,757)" d="m0 0h1l1 5v22l-2 7h-1z" fill="#BA2E3F"/>
<path transform="translate(736,708)" d="m0 0m-1 1m-2 1 2 1-2 3v2l-7 2-5 3h-2v2l-13 5 1-3 16-8 9-6z" fill="#DFEBEA"/>
<path transform="translate(260,242)" d="m0 0h6l2 2-1 5-1 1h-5l-2-2v-5z" fill="#33854A"/>
<path transform="translate(725,241)" d="m0 0h6l1 3h10l6 1v1h-28l3-3h2z" fill="#B12D3D"/>
<path transform="translate(453,134)" d="m0 0 4 1-1 9 1 6-3-1-1 2-1-4v-8z" fill="#16353A"/>
<path transform="translate(916,611)" d="m0 0 4 2-6 11-6-4v-2h3l2-5h2z" fill="#F38C26"/>
<path transform="translate(379,214)" d="m0 0 1 2-3 5h-3l-2 11-3 2-3-5 6-7z" fill="#F49A2D"/>
<path transform="translate(288,653)" d="m0 0 2 3-6 5-3 6-1 5-2-3-1 9h-1v-10l5-8z" fill="#DC6624"/>
<path transform="translate(266,629)" d="m0 0 5 1 1 1v5l-2 2-5-1-1-1v-5z" fill="#95C1BB"/>
<path transform="translate(782,363)" d="m0 0h2l-3 11-4 6-5-1 4-4 4-10h2z" fill="#F17D23"/>
<path transform="translate(640,244)" d="m0 0 4 1-1 4 1 1 1-3-1 7-5 1-2-3 1-6z" fill="#F37E20"/>
<path transform="translate(824,213)" d="m0 0 2 2h-3l1 22-3-1-1-2-4 1-1 2-2-3 1-4 8 2v-18z" fill="#F4972B"/>
<path transform="translate(369,200)" d="m0 0h4l-1 3h-3l-16 16 1 3-1 2-4-1 2-5z" fill="#752E39"/>
<path transform="translate(148,442)" d="m0 0h5l-4 1 1 3-4 6h-3l-2 3v-8l3-1 1-3z" fill="#65AC70"/>
<path transform="translate(514,414)" d="m0 0 4 4-1 3 17 1v1h-22l-3-4 1-3 3-1z" fill="#F49027"/>
<path transform="translate(572,205)" d="m0 0 3 2v2l5 1 1 4h-2l-1 2v-2l-7-2-3-3 1-3 3 1z" fill="#1B383D"/>
<path transform="translate(362,709)" d="m0 0h5l3 3 6 1v2l4 2v1l-9-1-8-5z" fill="#A93436"/>
<path transform="translate(922,580)" d="m0 0 2 1-2 5 3 1 2-1 1 5-3 1 3 3-5-1-3-2-1-8z" fill="#F49228"/>
<path transform="translate(855,465)" d="m0 0h6v2l-7 5-1 2 2-1 2-2 1 5-9 1v-2l-2-1 5-5 4-2z" fill="#17343A"/>
<path transform="translate(502,272)" d="m0 0 5 5 13 1 4 2h-22l-2-2z" fill="#F59027"/>
<path transform="translate(764,730)" d="m0 0 2 1-4 10-2 7-1-3-1-5-2-1 3-5z" fill="#439853"/>
<path transform="translate(589,660)" d="m0 0h6l-2 6-2 2h-5l-1-4z" fill="#19323A"/>
<path transform="translate(923,443)" d="m0 0h2l2 4v6l-4 6-5 4h-5l5-4 4-2 1-3z" fill="#AE3632"/>
<path transform="translate(636,768)" d="m0 0h5v16l4 2h-7v-17z" fill="#A62B3A"/>
<path transform="translate(317,709)" d="m0 0h9l1 3-6 2 1 3 2-1v4h-2l-1 3-2-4-1-4z" fill="#F17C20"/>
<path transform="translate(576,647)" d="m0 0h28l-1 2-22 1-5-1z" fill="#D65C24"/>
<path transform="translate(235,454)" d="m0 0h5l-1 2 4-1-2 3 1 1-8 8-1-4 3-2h-2v-4l-2-2z" fill="#2A4A4B"/>
<path transform="translate(552,338)" d="m0 0 1 2h2v3l2 1-3 12-2-4 1-4-4 1z" fill="#244346"/>
<path transform="translate(834,294)" d="m0 0 3 1-4 5-4 9h-1v-13z" fill="#FBFCFC"/>
<path transform="translate(819,290)" d="m0 0h7l1 4-3 2 2 6h-5l-1-6 2-2h-2z" fill="#F37E20"/>
<path transform="translate(316,657)" d="m0 0 8 1 2 3 2 4 2 3-4-2-3-1-1-2h-4l-2-3z" fill="#17363B"/>
<path transform="translate(336,367)" d="m0 0h2l-2 5-4 9h-4l1-5 3-6z" fill="#F6BD78"/>
<path transform="translate(885,361)" d="m0 0h19v2l3 1h-19l-2 1z" fill="#AD2D3A"/>
<path transform="translate(812,255)" d="m0 0 7 1 2 8v6l-2-1-5-10z" fill="#FBFCFC"/>
<path transform="translate(715,158)" d="m0 0 4 1 8 7-4 2-4-2-3-3-1 2-1-4z" fill="#F48A26"/>
<path transform="translate(500,307)" d="m0 0 4 1 2 6-1 5-4-1-2-8z" fill="#1C393E"/>
<path transform="translate(343,214)" d="m0 0 3 2 2-1 2 6-3 2-1 3-8-6 2-1 5 2v-2l-3-1z" fill="#F27C22"/>
<path transform="translate(794,177)" d="m0 0h6l1 2h-2l1 5-6 2v-2l-3-1v-2h4l-3-1v-2z" fill="#F49127"/>
<path transform="translate(713,133)" d="m0 0h2l2 3v8l-2 4-4-2 1-6z" fill="#DD5F27"/>
<path transform="translate(697,865)" d="m0 0 5 2-2 5-3 3-3-1-1-4z" fill="#63AC6B"/>
<path transform="translate(527,667)" d="m0 0 7 1v4h-2v6l-2-3v-3h-9l3-4z" fill="#16363B"/>
<path transform="translate(625,661)" d="m0 0 3 1v9l-3 5h-6l-3-3 1-7 4-1v-2zm-1 2-7 6 1 5 6 1 3-5v-6z" fill="#A92C3B"/>
<path transform="translate(834,255)" d="m0 0h2l-2 4-5 11-2-4 1-7 3-3z" fill="#F7F9F9"/>
<path transform="translate(353,197)" d="m0 0 2 1-7 8-3 7-4 3 1-7 9-10z" fill="#A92C3B"/>
<path transform="translate(319,860)" d="m0 0 5 3v-2h2v6l-4 2h-3l-2-3 1-5z" fill="#F37F22"/>
<path transform="translate(494,703)" d="m0 0 3 1-1 8-2 4-4 1 2-11z" fill="#1B363D"/>
<path transform="translate(866,688)" d="m0 0 3 4v5l2 2v3l-1 10h-1l-2-12-3-9z" fill="#3C934E"/>
<path transform="translate(652,666)" d="m0 0 3 1 1 2v12l-2 2h-7l-2-3 1-7 2 1-1 7 7-2v-11l-3 1z" fill="#AA2C3B"/>
<path transform="translate(512,659)" d="m0 0 7 1h20v2h-38l2-2h7z" fill="#4C726A"/>
<path transform="translate(846,274)" d="m0 0h1l-1 10-2 4h-4l-1-2 2-3h2l-1-4 1-4z" fill="#F17C22"/>
<path transform="translate(830,250)" d="m0 0h6 2l2 1-3 4-10 3-1-4 3-1z" fill="#F17C22"/>
<path transform="translate(655,771)" d="m0 0h3l1 15h-6z" fill="#A22B39"/>
<path transform="translate(899,630)" d="m0 0h4v2l-3 3 2 2v3l-1 2-7-3 2-4z" fill="#D65E2A"/>
<path transform="translate(333,802)" d="m0 0 2 3-6 12-8 10-2 1 2-4 10-16z" fill="#19323A"/>
<path transform="translate(316,723)" d="m0 0 5 1 6 4 2 2v3l-5-2-9-6z" fill="#722D3A"/>
<path transform="translate(819,705)" d="m0 0 2 2 3-2 3 3-1 2-3 1-4 4-4-7 1-2z" fill="#456964"/>
<path transform="translate(821,457)" d="m0 0 5 1 1 4-2 3-5-1-1-5z" fill="#95C1BB"/>
<path transform="translate(194,453)" d="m0 0 7 1v3l-1 2-3-2v5h-3v8h-1v-14z" fill="#1C383E"/>
<path transform="translate(290,243)" d="m0 0 7 1 2 2-1 4h-2l-1 2h-3z" fill="#487066"/>
<path transform="translate(660,836)" d="m0 0h5l2 6v3l-6 1-1 2 2-10z" fill="#BB303C"/>
<path transform="translate(752,336)" d="m0 0 2 4 5 5 4-1 4-3-2 4-4 3-5-1-2 1-1 6h-1l-1-8h3l-2-5z" fill="#F27F24"/>
<path transform="translate(497,251)" d="m0 0 4 2-2 5-3 2-4-1 2-5z" fill="#FBFCFC"/>
<path transform="translate(648,236)" d="m0 0h8v1l-9 2-5 3-4 6-2 7h-3l2-2 2-9 8-7z" fill="#F49A2D"/>
<path transform="translate(336,188)" d="m0 0 2 2 1-2h3l-1 4-8 8h-2v-4l4-2v-5z" fill="#F49229"/>
<path transform="translate(715,845)" d="m0 0 5 2 12 5 1 3-8-2-10-6z" fill="#AD3834"/>
<path transform="translate(404,353)" d="m0 0h2l-1 7v3l-2 4-1 3h-2v-8z" fill="#F49429"/>
<path transform="translate(188,358)" d="m0 0 6 2 15 8 2 3-5-1-15-9z" fill="#BA2E3F"/>
<path transform="translate(434,181)" d="m0 0 8 1-3 2-6-1 1 6-2 1v-4l-3 1-2 4-1-2-2 1 2-4 3-1v-2z" fill="#E2742A"/>
<path transform="translate(904,496)" d="m0 0h3l1 2 8 2-3 2h-10v-5z" fill="#1E393F"/>
<path transform="translate(836,360)" d="m0 0h2l1 5-1 4-12-1v-1l7-1 1-3-2-2z" fill="#3E964E"/>
<path transform="translate(561,314)" d="m0 0 5 1-2 9h-2l-1-3-1 2h-2z" fill="#203E42"/>
<path transform="translate(378,310)" d="m0 0h6v4l-5 3-5-1 3-5z" fill="#EE5841"/>
<path transform="translate(544,239)" d="m0 0h8l5 3 4 4-2 4-1-3h-2l-1-4h-2v-2h-8z" fill="#D85D24"/>
<path transform="translate(671,194)" d="m0 0h5l-4 3-13 1h-11l1-2z" fill="#95C1BB"/>
<path transform="translate(501,172)" d="m0 0h4l-1 7-2 3-3-1-1-6z" fill="#1C3C40"/>
<path transform="translate(899,639)" d="m0 0h4v2h2l2 5 2 7-2 4h-8v-1l7-2v-6l-7-6 3-2z" fill="#F4972B"/>
<path transform="translate(802,296)" d="m0 0h2l1 6h2l1 5 5 2v1h-6l-4-5-1-2z" fill="#F49128"/>
<path transform="translate(587,213)" d="m0 0 7 6 9 8-2 2-3-3v-2l-4-1-6-5v-3l-2-1z" fill="#F38426"/>
<path transform="translate(279,815)" d="m0 0 2 1v2l4-2 4 5-1 3h-4v-2l-3-1z" fill="#A52D3A"/>
<path transform="translate(721,750)" d="m0 0h11v2l-3 1v2h-9z" fill="#388B4C"/>
<path transform="translate(926,621)" d="m0 0h3v2h2l3 7-1 4-2 3-2-8z" fill="#DB6223"/>
<path transform="translate(177,478)" d="m0 0h13v6h-5v-4h-6z" fill="#1F3B40"/>
<path transform="translate(846,457)" d="m0 0 4 1 1 4-3 3 1 2-2 3-3-6v-6z" fill="#2C4D4E"/>
<path transform="translate(364,152)" d="m0 0h1v14l-4-3v-9z" fill="#18323A"/>
<path transform="translate(757,678)" d="m0 0h2l-2 5-8 12-2-2 4-5 4-8z" fill="#A93134"/>
<path transform="translate(593,656)" d="m0 0 1 2h2v6l-4 5-4 1-4-1 1-4 1 2h5l3-5 1-2h-6v-2h4z" fill="#A82B3A"/>
<path transform="translate(732,646)" d="m0 0h35v3l-3-1h-25l-7-1z" fill="#F2952C"/>
<path transform="translate(878,402)" d="m0 0 2 1v2l4 2 4 5 1 4-3-1-7-8zm10 8h2l-1 2z" fill="#CB443A"/>
<path transform="translate(650,362)" d="m0 0h15l1 2-10 2-6-2z" fill="#16353A"/>
<path transform="translate(292,302)" d="m0 0 12 4 2 3-8 1-5-5z" fill="#16353A"/>
<path transform="translate(826,274)" d="m0 0h2l-1 10-1 6-3-1v-2h-2v-7l2 4 2 1-1-6z" fill="#F17321"/>
<path transform="translate(838,257)" d="m0 0h2v6l-5 5-3 1 2-6z" fill="#F4992C"/>
<path transform="translate(440,183)" d="m0 0 5 1 4 4 1 3v7l-2 1-2-9-4-5z" fill="#A22C37"/>
<path transform="translate(310,169)" d="m0 0 5 1 5 2v3l4 1-1 3-9-6-4-1z" fill="#F4962A"/>
<path transform="translate(472,131)" d="m0 0 3 1-1 5-2 2h-3l-1 2-1-5 3-3z" fill="#1A363C"/>
<path transform="translate(242,808)" d="m0 0 6 5 5 5 3 4-4-1-4-3v-2l-3-1-3-4z" fill="#CF5336"/>
<path transform="translate(242,741)" d="m0 0 1 3-6 20h-1v-6l1-4 4-12z" fill="#F49228"/>
<path transform="translate(597,684)" d="m0 0 3 1-3 3v4l6 1 2-6 1 3-3 5h-6l-3-3 2-7z" fill="#A72B3A"/>
<path transform="translate(512,656)" d="m0 0h2l2 3 2 1-4 1-2-1-4 1-5-1 1-3z" fill="#32834A"/>
<path transform="translate(555,267)" d="m0 0h4v8l-3 1-3-5v-3z" fill="#F48E26"/>
<path transform="translate(602,838)" d="m0 0h3v8l-5 4-7-1v-1l7-2 2-2z" fill="#EF7B23"/>
<path transform="translate(493,732)" d="m0 0 2 1-4 20h-2v-9l2-4 1-7z" fill="#223E43"/>
<path transform="translate(820,689)" d="m0 0h2l-4 10 1 6h-4v-8z" fill="#244245"/>
<path transform="translate(425,659)" d="m0 0 1 4 1 5v9h-2l-2-9z" fill="#4C7369"/>
<path transform="translate(157,349)" d="m0 0h12v1l-11 1 12 1v1l-19 1 3-4z" fill="#F49E2F"/>
<path transform="translate(715,239)" d="m0 0 1 4v2l4 1h-17l3-3h6z" fill="#F48E26"/>
<path transform="translate(461,117)" d="m0 0 3 1v6l-3 3-4-2v-3h2z" fill="#18363B"/>
<path transform="translate(248,788)" d="m0 0 6 3 2 3-12-1-1-4z" fill="#F48823"/>
<path transform="translate(297,708)" d="m0 0 6 3 2 4v6l-2-1-1-3-4-3-2-5z" fill="#E57C29"/>
<path transform="translate(494,698)" d="m0 0 2 1v2l3-1v5 3l-3 3v-7l-2-1-1 3-1-2z" fill="#203F42"/>
<path transform="translate(835,686)" d="m0 0m-4 3 4 1 1 3 2 1-5 3h-3v-3h2v-2l-3-1h2z" fill="#264447"/>
<path transform="translate(482,97)" d="m0 0h2l1 4 3 1-5 4-4 2 1-4 1-3 3-1h-4v-2z" fill="#1D393E"/>
<path transform="translate(783,795)" d="m0 0 2 1-1 5h-2l-1 9-4 6-1-2 4-9 2-9z" fill="#BA2E3F"/>
<path transform="translate(814,700)" d="m0 0 2 1-1 4 4 1-4 2 2 1 2 4 1 3-2 1-1-3-2 1-1-3z" fill="#18353B"/>
<path transform="translate(152,407)" d="m0 0 3 1 4 4v3l4 2-3 2-6-7z" fill="#F49229"/>
<path transform="translate(202,397)" d="m0 0 1 3-4 6-6 7-2-1 2-4h2l2-4z" fill="#E1601F"/>
<path transform="translate(649,242)" d="m0 0 8 1 3 5-1 6h-1l-2-8-8-1-1-2z" fill="#F4952A"/>
<path transform="translate(203,465)" d="m0 0 5 1 1 1 4 2-1 4 2 1v2l-3 1-2-5h-3l-1-5z" fill="#1A373C"/>
<path transform="translate(863,460)" d="m0 0 4 4v4l-5 1-2-3-2-1 3-3h2z" fill="#385B58"/>
<path transform="translate(518,408)" d="m0 0 4 2v5l-5 1-1-5z" fill="#FBFCFC"/>
<path transform="translate(211,379)" d="m0 0h1v8l-3 7-6 4 7-14z" fill="#E6681F"/>
<path transform="translate(383,288)" d="m0 0 4 1-2 1v3l2 1-1-3h2l-1 5h-3-3-1v-6z" fill="#F49429"/>
<path transform="translate(513,255)" d="m0 0 4 3v4l1 4h-7l2-2-1-5z" fill="#F48E26"/>
<path transform="translate(845,254)" d="m0 0h3l-1 6h-3-2v2l-3-1 2-6z" fill="#F38D26"/>
<path transform="translate(415,246)" d="m0 0h2l-2 5-5 5h-2l-1 4-3-1 7-9z" fill="#AA2C3B"/>
<path transform="translate(368,219)" d="m0 0 2 4-6 7-3 1 2-6z" fill="#9A2B39"/>
<path transform="translate(364,191)" d="m0 0 4 1 2 4-1 2h-3l-2-2-4-1z" fill="#F07D21"/>
<path transform="translate(374,871)" d="m0 0 2 1 2 16-2-2-3-7v-6z" fill="#577E77"/>
<path transform="translate(318,826)" d="m0 0 1 3-6 7-2 1h-6l4-3 4-1 2-4z" fill="#922C3A"/>
<path transform="translate(217,739)" d="m0 0 1 3-8 8-6 2 1-3 5-3h2l2-4z" fill="#AA3334"/>
<path transform="translate(683,728)" d="m0 0m-3-1 1 2h2l1 3h-16l4-2 4-1h4z" fill="#B72E3D"/>
<path transform="translate(727,712)" d="m0 0m-2 1h2l-2 4-13 7-4-1 12-6z" fill="#A93134"/>
<path transform="translate(506,651)" d="m0 0h6v5h-8l1-4z" fill="#F2F7F6"/>
<path transform="translate(501,649)" d="m0 0 2 1-2 3 1 3h-2v3h-3l-1 3 1-9z" fill="#57A65D"/>
<path transform="translate(277,417)" d="m0 0h6v2l6 1v3h-11l-1-5z" fill="#3B914D"/>
<path transform="translate(130,410)" d="m0 0 4 1v8l-4 3-3-1 3-3 1-5z" fill="#EE7B25"/>
<path transform="translate(280,291)" d="m0 0h8l1 4-2 1v-2h-5v7h-2z" fill="#16353A"/>
<path transform="translate(498,249)" d="m0 0h10l3 4 1 5h-3l-2-7h-7z" fill="#CA3C37"/>
<path transform="translate(320,821)" d="m0 0 2 1-2 4-6 5-3 3-1-2 3-4h2l2-4z" fill="#B52D3E"/>
<path transform="translate(271,793)" d="m0 0h2l3 8v5l-3-1-2-5z" fill="#842C39"/>
<path transform="translate(369,679)" d="m0 0 3 1-4 9-3-1 1-6z" fill="#F7C592"/>
<path transform="translate(219,454)" d="m0 0h1v6l-2-1 1-2-5 1 1 3-4 2-4-4h5l3-4z" fill="#466B64"/>
<path transform="translate(169,386)" d="m0 0 2 2-8 8-5 4-2-1z" fill="#BA2E3F"/>
<path transform="translate(504,284)" d="m0 0h8l5 1-1 2h-13l-1-2z" fill="#17343A"/>
<path transform="translate(217,239)" d="m0 0h1v12l-1 5-2-2v-8z" fill="#499C5B"/>
<path transform="translate(367,207)" d="m0 0h2l-1 5-2 6-4-3 2-5z" fill="#F4962B"/>
<path transform="translate(326,710)" d="m0 0 7 1v1h-5l-1 2-4 2-1 2-2-4 2-2z" fill="#F38924"/>
<path transform="translate(390,668)" d="m0 0 10 1 1 3-5-1h-7l-5 1v-2z" fill="#B43930"/>
<path transform="translate(444,663)" d="m0 0 3 1-3 3-2 9-1-4-1 6h-1v-8l3-5z" fill="#F49B2D"/>
<path transform="translate(146,352)" d="m0 0 4 2-5 5-5 2 3-6 3-1z" fill="#F2791F"/>
<path transform="translate(736,325)" d="m0 0 8 3-2 3-6-1-5-1-1 4v-5l3-1h3z" fill="#F49C2E"/>
<path transform="translate(246,323)" d="m0 0 4 5 4 4v2l2 1-3 1-9-10v-2z" fill="#16353A"/>
<path transform="translate(236,319)" d="m0 0h5l-5 5-4 3h-2l2-5z" fill="#16353A"/>
<path transform="translate(379,316)" d="m0 0 4 2v4l-5-1-4-2v-2z" fill="#BD333D"/>
<path transform="translate(338,181)" d="m0 0h3l-1 3-3 1-5 6-1 3-3-1 2-4z" fill="#F4952A"/>
<path transform="translate(267,181)" d="m0 0h3l1 3-3 4h-4v-5z" fill="#F8FAFA"/>
<path transform="translate(339,828)" d="m0 0 1 3-11 4h-7l4-2 10-3z" fill="#C94937"/>
<path transform="translate(257,823)" d="m0 0 5 2 12 6v1l-7-1-10-6z" fill="#D25937"/>
<path transform="translate(481,758)" d="m0 0h2v2l3-1 1 4-3 5-4-4z" fill="#18363C"/>
<path transform="translate(483,749)" d="m0 0h2l2 7h-2l-2 4v-2h-2z" fill="#1E3A3F"/>
<path transform="translate(609,726)" d="m0 0 6 2 3 3-4 4-1-3-4-4z" fill="#32834A"/>
<path transform="translate(494,696)" d="m0 0h5l2 2-1 8-2-1v-4h-2z" fill="#19353B"/>
<path transform="translate(710,581)" d="m0 0h2l1 2 2-1 6 3-1 3-10-3z" fill="#16363B"/>
<path transform="translate(185,558)" d="m0 0h1l1 18-3-1v-9z" fill="#16363B"/>
<path transform="translate(906,440)" d="m0 0 4 1-1 5-3 2-2-1v-5z" fill="#F5F8F8"/>
<path transform="translate(431,248)" d="m0 0 2 1 1 8-2 8h-1z" fill="#C94933"/>
<path transform="translate(374,238)" d="m0 0 1 3 4-1 1 3 2 1-1 2-3-1-2 2-1-4h-2z" fill="#EE6E20"/>
<path transform="translate(283,196)" d="m0 0h3l-1 4-6 4h-9v-2h7l5-3z" fill="#AA3233"/>
<path transform="translate(835,680)" d="m0 0h11l4 2-7 1-2-1-1 2-3-1v-2z" fill="#16343A"/>
<path transform="translate(916,650)" d="m0 0h2v7l-3 5-3-1 2-1z" fill="#DA5F25"/>
<path transform="translate(512,398)" d="m0 0 2 3 1 4 2 2h-2l-1 3-1-4-2-1-3 3 1-5z" fill="#F49D2E"/>
<path transform="translate(153,336)" d="m0 0 4 1 7 4-3 1-9-2z" fill="#54A166"/>
<path transform="translate(798,328)" d="m0 0h2l1 4v7h-1l-1 5h-1z" fill="#95C1BB"/>
<path transform="translate(846,293)" d="m0 0h2l-1 6-3 8-3 1 2-4 2-8z" fill="#E36B26"/>
<path transform="translate(491,264)" d="m0 0 5 3 6-2-2 5-1 2-4-2-4-4z" fill="#CF4D20"/>
<path transform="translate(757,231)" d="m0 0 4 1 4 4-3 3h-5l2-6z" fill="#BF3E31"/>
<path transform="translate(830,231)" d="m0 0 5 1v4l-4 3h-2v-2h2z" fill="#EC8027"/>
<path transform="translate(383,206)" d="m0 0 3 1 1 6-4-1h-3l1-5z" fill="#E97121"/>
<path transform="translate(444,840)" d="m0 0m-1 1 2 1-1 4-3-1 1 4-4-1-1-2 3-4z" fill="#17343A"/>
<path transform="translate(341,777)" d="m0 0h1l-1 15-4-4v-4h2z" fill="#A92C3B"/>
<path transform="translate(609,731)" d="m0 0 5 1 1 1 1 2 3 1h-3l-1 2-7-4z" fill="#3A8F4D"/>
<path transform="translate(828,693)" d="m0 0 2 1-2 3v5l-4 2-1-2 3-7z" fill="#2E4F4F"/>
<path transform="translate(902,606)" d="m0 0 2 1-1 5 5 5-1 2-7-5 1-7z" fill="#F49328"/>
<path transform="translate(782,328)" d="m0 0h1v8l-2 6h-3l1-6h2v-7z" fill="#F07923"/>
<path transform="translate(477,315)" d="m0 0h3v21h-1l-1-15-1-1z" fill="#C23C3B"/>
<path transform="translate(845,258)" d="m0 0h1v6h-2l-2 4-4 3 2-4 2-7z" fill="#E86C24"/>
<path transform="translate(491,252)" d="m0 0h3v3l-1 4 3 2-5-1-2 4v-8z" fill="#EF8C2B"/>
<path transform="translate(361,227)" d="m0 0 1 3 3-1-4 8h-2l-1-5z" fill="#CF4D22"/>
<path transform="translate(345,175)" d="m0 0 4 1 4 5v3h-2l-1 3v-3h-2v-2h2v-3l-4-2z" fill="#F07E23"/>
<path transform="translate(829,735)" d="m0 0 8 2-3 3-5 1-1 2-1-3z" fill="#52A455"/>
<path transform="translate(180,489)" d="m0 0h10l-1 4h-2v-3h-2l-1 3-3 1-2-1z" fill="#345654"/>
<path transform="translate(752,354)" d="m0 0 2 3 2 9-5-1-4-4 1-2 6 5-2-5z" fill="#F4942B"/>
<path transform="translate(395,248)" d="m0 0v3l3-2 2 1-8 7-2-1 2-4z" fill="#9E2C3A"/>
<path transform="translate(340,212)" d="m0 0 3 3v3l2 1v2l-7-2-1-3z" fill="#D04D20"/>
<path transform="translate(784,199)" d="m0 0 2 4h-2l-1 2 5 2v1l-7-1-2-2 1-4z" fill="#F38725"/>
<path transform="translate(801,190)" d="m0 0 2 2v5l-5 2h-2v-3h3z" fill="#D55525"/>
<path transform="translate(749,192)" d="m0 0h13l-1 4h-4-2v-2l-6-1z" fill="#67A97A"/>
<path transform="translate(499,668)" d="m0 0h2v2l5 2-1 4v-2l-5-1-1 4-1-3z" fill="#223F43"/>
<path transform="translate(768,647)" d="m0 0 1 4-3 12-2-1 2-13z" fill="#A73336"/>
<path transform="translate(919,614)" d="m0 0 3 3-4 4-1 3h-3l2-6z" fill="#C54328"/>
<path transform="translate(854,458)" d="m0 0 4 2 3 2-1 2h-3l-5-2z" fill="#1E3B40"/>
<path transform="translate(861,454)" d="m0 0 1 3-2 4-4-2-3-3 4-1 4 1z" fill="#4D736C"/>
<path transform="translate(340,354)" d="m0 0 5 2 6 3v2l-5-1-5-3-4-2z" fill="#C84329"/>
<path transform="translate(515,345)" d="m0 0 2 1 1 6-3-1-2 4-1-8z" fill="#224043"/>
<path transform="translate(354,221)" d="m0 0h3l3 4v3l-7-2z" fill="#F27F20"/>
<path transform="translate(707,153)" d="m0 0 1 4-1 5-3 4-1-5z" fill="#F49C2E"/>
<path transform="translate(504,105)" d="m0 0 2 1-3 5h-6l-2-2z" fill="#213D42"/>
<path transform="translate(578,881)" d="m0 0h5v6l-5 1z" fill="#3E964E"/>
<path transform="translate(723,782)" d="m0 0v3l-5 5-4 8-1-3 5-8z" fill="#F48F28"/>
<path transform="translate(445,767)" d="m0 0 3 1v4l-5 1-1-5z" fill="#F7F9F9"/>
<path transform="translate(208,461)" d="m0 0 3 1 1 3h-2l-2 4-2-3-3-2h3l1-2z" fill="#335454"/>
<path transform="translate(202,406)" d="m0 0 3 2-6 8-2-1 2-6z" fill="#F49128"/>
<path transform="translate(481,405)" d="m0 0h2v3l-8 7-3-1 7-6z" fill="#C44236"/>
<path transform="translate(735,361)" d="m0 0 5 2 6 1-4 2v3l-7-5-3-2z" fill="#F49D2E"/>
<path transform="translate(913,356)" d="m0 0 4 1-5 2v2l-5 1v-5h5z" fill="#3E934F"/>
<path transform="translate(504,324)" d="m0 0 4 4 1 2 2-2 1 4-4 1-1 2-3-8z" fill="#284649"/>
<path transform="translate(435,294)" d="m0 0h2l2 5-5 4-2 2v-3l2-4-3-2h4z" fill="#F49D2E"/>
<path transform="translate(389,240)" d="m0 0v3l-6 6-3-1 2-5 2-1v3z" fill="#A22C3A"/>
<path transform="translate(572,205)" d="m0 0 3 2-1 4h-4l-2-4 2-1 2 1z" fill="#1F3B40"/>
<path transform="translate(325,180)" d="m0 0 1 2 3 1-2 6-3 1v-3l-3-1 4-1z" fill="#EE902C"/>
<path transform="translate(725,141)" d="m0 0h3l4 5 3 4v2l-4-1-4-7-2-1z" fill="#B93E31"/>
<path transform="translate(322,660)" d="m0 0h1v5l4 1 1 2-1 2-4-2-3-4z" fill="#213E42"/>
<path transform="translate(312,661)" d="m0 0 4 3-2 4-5-1 2-5z" fill="#BA2E3F"/>
<path transform="translate(428,653)" d="m0 0 3 2-5 10-1-2 2-9z" fill="#27494A"/>
<path transform="translate(905,635)" d="m0 0h2v2h2v2l2 1-3 2-5-3z" fill="#F48C25"/>
<path transform="translate(178,489)" d="m0 0h2l-1 4h3l2-2-1 6-6-2z" fill="#17333A"/>
<path transform="translate(937,469)" d="m0 0 2 1 1 3-3 1 5 2v1h-5l-3-2v-4z" fill="#F27E22"/>
<path transform="translate(387,415)" d="m0 0 3 1v2h2l1-3v4l-5 3-2-6z" fill="#408B55"/>
<path transform="translate(547,395)" d="m0 0 6 1v3l-19-1v-1h13z" fill="#B22D3D"/>
<path transform="translate(445,280)" d="m0 0h1l1 6h1v8h-3z" fill="#325252"/>
<path transform="translate(539,275)" d="m0 0h2v5h-11v-2h9z" fill="#F48C26"/>
<path transform="translate(524,245)" d="m0 0h2v3h6l-2 4-5-1-2-1-3-1 5-1z" fill="#F48D26"/>
<path transform="translate(828,232)" d="m0 0 2 1v2h-2l-1 2h-3v-4zm-8 4 4 1 1 3-4-1z" fill="#F38623"/>
<path transform="translate(371,222)" d="m0 0v3l-4 5 2 4h-3l-2-1 2-6z" fill="#EC7821"/>
<path transform="translate(371,225)" d="m0 0 2 4-3 5-3-3z" fill="#F4982B"/>
<path transform="translate(400,219)" d="m0 0 8 6-2 1-5-1-4 1z" fill="#F48F28"/>
<path transform="translate(596,183)" d="m0 0 5 2 4 3-5-1-1 4-3-5z" fill="#EB802B"/>
<path transform="translate(737,156)" d="m0 0 2 2v3h2v7l-4 1 1-6z" fill="#CD4F35"/>
<path transform="translate(263,762)" d="m0 0h1l1 11-1 7-2-4v-8z" fill="#F49E2F"/>
<path transform="translate(266,763)" d="m0 0h1l1 17h2v2h-2l-1 3-1-3z" fill="#A42C38"/>
<path transform="translate(742,755)" d="m0 0 4 1 5 6-8-1 1-2z" fill="#37894C"/>
<path transform="translate(573,738)" d="m0 0 3 1-1 5-1 2-3-1v-5z" fill="#F37F22"/>
<path transform="translate(836,683)" d="m0 0 3 2-1 1v7h-2v-2l-2-1-1-4zm-1 3 1 3z" fill="#18333A"/>
<path transform="translate(306,648)" d="m0 0 4 2 3 1 1 5h-3l-5-6z" fill="#17343A"/>
<path transform="translate(443,643)" d="m0 0 5 1v2l-11 1v-2z" fill="#4C726A"/>
<path transform="translate(924,454)" d="m0 0 1 3-7 6h-5l5-4 4-2z" fill="#A63136"/>
<path transform="translate(210,356)" d="m0 0h3l3 1v5l-4-2v5l-2-3-1-4z" fill="#F27C20"/>
<path transform="translate(756,324)" d="m0 0 3 2-1 2-1 3-5 2v-4h2z" fill="#EA7D26"/>
<path transform="translate(844,292)" d="m0 0 4 1h-2l-1 5-2-2h-7l1-2z" fill="#F4972B"/>
<path transform="translate(448,290)" d="m0 0h6v2l-5 1-1 3-4-1 1-4 2 3z" fill="#C04234"/>
<path transform="translate(417,247)" d="m0 0h2l-2 4-9 9-1-2 5-5z" fill="#19323A"/>
<path transform="translate(423,241)" d="m0 0h3l1 3-8 7h-3l6-6z" fill="#AA2C3B"/>
<path transform="translate(716,239)" d="m0 0h4l1 3-1 3h-4l-1-4z" fill="#E76C1F"/>
<path transform="translate(825,235)" d="m0 0h3 3v2h-2l1 3-5 1v-2l-2-1z" fill="#EE7620"/>
<path transform="translate(583,211)" d="m0 0v3l-2 5-4-2-3-4 7 1v-2z" fill="#28313A"/>
<path transform="translate(754,196)" d="m0 0 2 4-3 3-5-1 4-5z" fill="#5CA76A"/>
<path transform="translate(729,170)" d="m0 0 5 1 2 3-3 2-5-1 2-3z" fill="#DB6223"/>
<path transform="translate(577,881)" d="m0 0h1v7h2v8l-2-1-1-3z" fill="#52A15E"/>
<path transform="translate(656,856)" d="m0 0 1 3-3 7-7 1-1-3h6l2-5z" fill="#BE343B"/>
<path transform="translate(439,818)" d="m0 0 5 2v4l-4-1-4 1v-2h2z" fill="#274749"/>
<path transform="translate(285,712)" d="m0 0 5 1v4l-6-1-2-2z" fill="#F59027"/>
<path transform="translate(384,636)" d="m0 0 3 1 1 3-3 1-1 4h-2z" fill="#3B8253"/>
<path transform="translate(859,467)" d="m0 0 2 1-3 7-2-2-1 2-3-1 5-5z" fill="#335654"/>
<path transform="translate(342,398)" d="m0 0 2 1-8 10-2 2 1-5z" fill="#B82D3E"/>
<path transform="translate(399,372)" d="m0 0 2 1v3l3 3v5h-2l-3-7z" fill="#F48B24"/>
<path transform="translate(909,366)" d="m0 0h3l1 6h2v2l2 1h-5z" fill="#B82D3E"/>
<path transform="translate(782,363)" d="m0 0h2l-3 11-2 1v-7l1-3h2z" fill="#E46B25"/>
<path transform="translate(318,303)" d="m0 0 2 1 1 7-2-4h-7v-2z" fill="#16353A"/>
<path transform="translate(759,238)" d="m0 0v3l-2 5h-5l4-7z" fill="#A12B39"/>
<path transform="translate(750,230)" d="m0 0h8v1l-9 2-5 6h-2l2-4z" fill="#F38D28"/>
<path transform="translate(602,228)" d="m0 0 5 2 1 4-3 3-2-6z" fill="#EF7923"/>
<path transform="translate(582,221)" d="m0 0h3l5 5 2 1-1 4-9-9z" fill="#F38425"/>
<path transform="translate(732,207)" d="m0 0h4v2l-12 3v-2l3-2z" fill="#2D6349"/>
<path transform="translate(345,207)" d="m0 0 2 3-5 6h-1v-5z" fill="#9B2C3A"/>
<path transform="translate(324,190)" d="m0 0 2 4-7 6 1-5z" fill="#982B39"/>
<path transform="translate(715,158)" d="m0 0 4 1 1 2-2 3-2-1-1 2-1-4z" fill="#F49228"/>
<path transform="translate(632,104)" d="m0 0 2 2-1 9-2 2-1-2 1-7z" fill="#EC7823"/>
</svg>
